mtllib asset_plug.mtl
v -0.010000 0.010000 0.045000
v -0.010000 -0.010000 0.045000
v -0.010245 -0.010245 0.045012
v -0.010488 -0.010488 0.045048
v -0.010726 -0.010726 0.045108
v -0.010957 -0.010957 0.045190
v -0.011178 -0.011178 0.045295
v -0.011389 -0.011389 0.045421
v -0.011586 -0.011586 0.045567
v -0.011768 -0.011768 0.045732
v -0.011933 -0.011933 0.045914
v -0.012079 -0.012079 0.046111
v -0.012205 -0.012205 0.046322
v -0.012310 -0.012310 0.046543
v -0.012392 -0.012392 0.046774
v -0.012452 -0.012452 0.047012
v -0.012488 -0.012488 0.047255
v -0.012500 -0.012500 0.047500
v -0.012500 0.012500 0.047500
v -0.012488 0.012488 0.047255
v -0.012452 0.012452 0.047012
v -0.012392 0.012392 0.046774
v -0.012310 0.012310 0.046543
v -0.012205 0.012205 0.046322
v -0.012079 0.012079 0.046111
v -0.011933 0.011933 0.045914
v -0.011768 0.011768 0.045732
v -0.011586 0.011586 0.045567
v -0.011389 0.011389 0.045421
v -0.011178 0.011178 0.045295
v -0.010957 0.010957 0.045190
v -0.010726 0.010726 0.045108
v -0.010488 0.010488 0.045048
v -0.010245 0.010245 0.045012
v -0.010301 -0.006250 0.045018
v -0.010301 -0.000000 0.045018
v -0.010301 0.006250 0.045018
v -0.010598 -0.006250 0.045073
v -0.010598 -0.000000 0.045073
v -0.010598 0.006250 0.045073
v -0.010887 -0.006250 0.045162
v -0.010887 -0.000000 0.045162
v -0.010887 0.006250 0.045162
v -0.011162 -0.006250 0.045286
v -0.011162 -0.000000 0.045286
v -0.011162 0.006250 0.045286
v -0.011420 -0.006250 0.045443
v -0.011420 -0.000000 0.045443
v -0.011420 0.006250 0.045443
v -0.011658 -0.006250 0.045629
v -0.011658 -0.000000 0.045629
v -0.011658 0.006250 0.045629
v -0.011871 -0.006250 0.045842
v -0.011871 -0.000000 0.045842
v -0.011871 0.006250 0.045842
v -0.012057 -0.006250 0.046080
v -0.012057 -0.000000 0.046080
v -0.012057 0.006250 0.046080
v -0.012214 -0.006250 0.046338
v -0.012214 -0.000000 0.046338
v -0.012214 0.006250 0.046338
v -0.012338 -0.006250 0.046613
v -0.012338 -0.000000 0.046613
v -0.012338 0.006250 0.046613
v -0.012427 -0.006250 0.046902
v -0.012427 -0.000000 0.046902
v -0.012427 0.006250 0.046902
v -0.012482 -0.006250 0.047199
v -0.012482 -0.000000 0.047199
v -0.012482 0.006250 0.047199
v 0.010000 -0.010000 0.045000
v 0.010245 -0.010245 0.045012
v 0.010488 -0.010488 0.045048
v 0.010726 -0.010726 0.045108
v 0.010957 -0.010957 0.045190
v 0.011178 -0.011178 0.045295
v 0.011389 -0.011389 0.045421
v 0.011586 -0.011586 0.045567
v 0.011768 -0.011768 0.045732
v 0.011933 -0.011933 0.045914
v 0.012079 -0.012079 0.046111
v 0.012205 -0.012205 0.046322
v 0.012310 -0.012310 0.046543
v 0.012392 -0.012392 0.046774
v 0.012452 -0.012452 0.047012
v 0.012488 -0.012488 0.047255
v 0.012500 -0.012500 0.047500
v 0.006250 -0.010301 0.045018
v 0.000000 -0.010301 0.045018
v -0.006250 -0.010301 0.045018
v 0.006250 -0.010598 0.045073
v 0.000000 -0.010598 0.045073
v -0.006250 -0.010598 0.045073
v 0.006250 -0.010887 0.045162
v 0.000000 -0.010887 0.045162
v -0.006250 -0.010887 0.045162
v 0.006250 -0.011162 0.045286
v 0.000000 -0.011162 0.045286
v -0.006250 -0.011162 0.045286
v 0.006250 -0.011420 0.045443
v 0.000000 -0.011420 0.045443
v -0.006250 -0.011420 0.045443
v 0.006250 -0.011658 0.045629
v 0.000000 -0.011658 0.045629
v -0.006250 -0.011658 0.045629
v 0.006250 -0.011871 0.045842
v 0.000000 -0.011871 0.045842
v -0.006250 -0.011871 0.045842
v 0.006250 -0.012057 0.046080
v 0.000000 -0.012057 0.046080
v -0.006250 -0.012057 0.046080
v 0.006250 -0.012214 0.046338
v 0.000000 -0.012214 0.046338
v -0.006250 -0.012214 0.046338
v 0.006250 -0.012338 0.046613
v 0.000000 -0.012338 0.046613
v -0.006250 -0.012338 0.046613
v 0.006250 -0.012427 0.046902
v 0.000000 -0.012427 0.046902
v -0.006250 -0.012427 0.046902
v 0.006250 -0.012482 0.047199
v 0.000000 -0.012482 0.047199
v -0.006250 -0.012482 0.047199
v 0.010000 0.010000 0.045000
v 0.010245 0.010245 0.045012
v 0.010488 0.010488 0.045048
v 0.010726 0.010726 0.045108
v 0.010957 0.010957 0.045190
v 0.011178 0.011178 0.045295
v 0.011389 0.011389 0.045421
v 0.011586 0.011586 0.045567
v 0.011768 0.011768 0.045732
v 0.011933 0.011933 0.045914
v 0.012079 0.012079 0.046111
v 0.012205 0.012205 0.046322
v 0.012310 0.012310 0.046543
v 0.012392 0.012392 0.046774
v 0.012452 0.012452 0.047012
v 0.012488 0.012488 0.047255
v 0.012500 0.012500 0.047500
v 0.010301 0.006250 0.045018
v 0.010301 -0.000000 0.045018
v 0.010301 -0.006250 0.045018
v 0.010598 0.006250 0.045073
v 0.010598 -0.000000 0.045073
v 0.010598 -0.006250 0.045073
v 0.010887 0.006250 0.045162
v 0.010887 -0.000000 0.045162
v 0.010887 -0.006250 0.045162
v 0.011162 0.006250 0.045286
v 0.011162 -0.000000 0.045286
v 0.011162 -0.006250 0.045286
v 0.011420 0.006250 0.045443
v 0.011420 -0.000000 0.045443
v 0.011420 -0.006250 0.045443
v 0.011658 0.006250 0.045629
v 0.011658 -0.000000 0.045629
v 0.011658 -0.006250 0.045629
v 0.011871 0.006250 0.045842
v 0.011871 -0.000000 0.045842
v 0.011871 -0.006250 0.045842
v 0.012057 0.006250 0.046080
v 0.012057 -0.000000 0.046080
v 0.012057 -0.006250 0.046080
v 0.012214 0.006250 0.046338
v 0.012214 -0.000000 0.046338
v 0.012214 -0.006250 0.046338
v 0.012338 0.006250 0.046613
v 0.012338 -0.000000 0.046613
v 0.012338 -0.006250 0.046613
v 0.012427 0.006250 0.046902
v 0.012427 -0.000000 0.046902
v 0.012427 -0.006250 0.046902
v 0.012482 0.006250 0.047199
v 0.012482 -0.000000 0.047199
v 0.012482 -0.006250 0.047199
v 0.006250 0.012482 0.047199
v 0.000000 0.012482 0.047199
v -0.006250 0.012482 0.047199
v 0.006250 0.012427 0.046902
v 0.000000 0.012427 0.046902
v -0.006250 0.012427 0.046902
v 0.006250 0.012338 0.046613
v 0.000000 0.012338 0.046613
v -0.006250 0.012338 0.046613
v 0.006250 0.012214 0.046338
v 0.000000 0.012214 0.046338
v -0.006250 0.012214 0.046338
v 0.006250 0.012057 0.046080
v 0.000000 0.012057 0.046080
v -0.006250 0.012057 0.046080
v 0.006250 0.011871 0.045842
v 0.000000 0.011871 0.045842
v -0.006250 0.011871 0.045842
v 0.006250 0.011658 0.045629
v 0.000000 0.011658 0.045629
v -0.006250 0.011658 0.045629
v 0.006250 0.011420 0.045443
v 0.000000 0.011420 0.045443
v -0.006250 0.011420 0.045443
v 0.006250 0.011162 0.045286
v 0.000000 0.011162 0.045286
v -0.006250 0.011162 0.045286
v 0.006250 0.010887 0.045162
v 0.000000 0.010887 0.045162
v -0.006250 0.010887 0.045162
v 0.006250 0.010598 0.045073
v 0.000000 0.010598 0.045073
v -0.006250 0.010598 0.045073
v 0.006250 0.010301 0.045018
v 0.000000 0.010301 0.045018
v -0.006250 0.010301 0.045018
v -0.012500 0.012500 0.070000
v 0.012500 0.012500 0.070000
v -0.012500 -0.012500 0.070000
v 0.012500 -0.012500 0.070000
v -0.015000 -0.015000 0.070000
v -0.015000 0.015000 0.070000
v 0.015000 0.015000 0.070000
v 0.015000 -0.015000 0.070000
v -0.015000 -0.015000 0.130000
v -0.015000 0.015000 0.130000
v 0.015000 0.015000 0.130000
v 0.015000 -0.015000 0.130000
vt -1.625000 -0.196350 0.000000
vt 0.375000 -0.196350 0.000000
vt -1.649504 -0.171806 0.000000
vt -1.250000 -0.166142 0.000000
vt -1.673773 -0.147262 0.000000
vt -1.250000 -0.135934 0.000000
vt -1.697571 -0.122718 0.000000
vt -1.250000 -0.105727 0.000000
vt -1.720671 -0.098175 0.000000
vt -1.250000 -0.075519 0.000000
vt -1.742849 -0.073631 0.000000
vt -1.763893 -0.049087 0.000000
vt -1.250000 -0.045311 0.000000
vt -1.783598 -0.024544 0.000000
vt -1.250000 -0.015104 0.000000
vt -1.801777 0.000000 0.000000
vt -1.250000 0.015104 0.000000
vt -1.818253 0.024544 0.000000
vt -1.250000 0.045311 0.000000
vt -1.832867 0.049087 0.000000
vt -1.250000 0.075519 0.000000
vt -1.845480 0.073631 0.000000
vt -1.855970 0.098175 0.000000
vt -1.250000 0.105727 0.000000
vt -1.864235 0.122718 0.000000
vt -1.250000 0.135934 0.000000
vt -1.870196 0.147262 0.000000
vt -1.250000 0.166142 0.000000
vt -1.873796 0.171806 0.000000
vt -1.875000 0.196350 0.000000
vt -0.625000 0.166142 0.000000
vt 0.000000 0.166142 0.000000
vt 0.000000 0.135934 0.000000
vt 0.620196 0.147262 0.000000
vt 0.614235 0.122718 0.000000
vt 0.000000 0.105727 0.000000
vt 0.605970 0.098175 0.000000
vt 0.000000 0.075519 0.000000
vt 0.595480 0.073631 0.000000
vt 0.582867 0.049087 0.000000
vt 0.000000 0.045311 0.000000
vt 0.568253 0.024544 0.000000
vt 0.000000 0.015104 0.000000
vt 0.551777 0.000000 0.000000
vt 0.000000 -0.015104 0.000000
vt 0.533598 -0.024544 0.000000
vt 0.000000 -0.045311 0.000000
vt 0.513893 -0.049087 0.000000
vt 0.000000 -0.075519 0.000000
vt 0.492849 -0.073631 0.000000
vt 0.470671 -0.098175 0.000000
vt 0.000000 -0.105727 0.000000
vt 0.447571 -0.122718 0.000000
vt 0.000000 -0.135934 0.000000
vt 0.423773 -0.147262 0.000000
vt 0.000000 -0.166142 0.000000
vt 0.399504 -0.171806 0.000000
vt -0.625000 -0.166142 0.000000
vt 0.623796 0.171806 0.000000
vt 0.625000 0.196350 0.000000
vt -0.625000 -0.135934 0.000000
vt -0.625000 -0.105727 0.000000
vt -0.625000 -0.075519 0.000000
vt -0.625000 -0.045311 0.000000
vt -0.625000 -0.015104 0.000000
vt -0.625000 0.015104 0.000000
vt -0.625000 0.045311 0.000000
vt -0.625000 0.075519 0.000000
vt -0.625000 0.105727 0.000000
vt -0.625000 0.135934 0.000000
vt -1.625000 -0.196350 0.000000
vt 0.375000 -0.196350 0.000000
vt -1.649504 -0.171806 0.000000
vt -1.250000 -0.166142 0.000000
vt -1.673773 -0.147262 0.000000
vt -1.250000 -0.135934 0.000000
vt -1.697571 -0.122718 0.000000
vt -1.250000 -0.105727 0.000000
vt -1.720671 -0.098175 0.000000
vt -1.250000 -0.075519 0.000000
vt -1.742849 -0.073631 0.000000
vt -1.763893 -0.049087 0.000000
vt -1.250000 -0.045311 0.000000
vt -1.783598 -0.024544 0.000000
vt -1.250000 -0.015104 0.000000
vt -1.801777 0.000000 0.000000
vt -1.250000 0.015104 0.000000
vt -1.818253 0.024544 0.000000
vt -1.250000 0.045311 0.000000
vt -1.832867 0.049087 0.000000
vt -1.250000 0.075519 0.000000
vt -1.845480 0.073631 0.000000
vt -1.855970 0.098175 0.000000
vt -1.250000 0.105727 0.000000
vt -1.864235 0.122718 0.000000
vt -1.250000 0.135934 0.000000
vt -1.870196 0.147262 0.000000
vt -1.250000 0.166142 0.000000
vt -1.873796 0.171806 0.000000
vt -1.875000 0.196350 0.000000
vt -0.625000 0.166142 0.000000
vt -0.000000 0.166142 0.000000
vt -0.000000 0.135934 0.000000
vt 0.620196 0.147262 0.000000
vt 0.614235 0.122718 0.000000
vt -0.000000 0.105727 0.000000
vt 0.605970 0.098175 0.000000
vt -0.000000 0.075519 0.000000
vt 0.595480 0.073631 0.000000
vt 0.582867 0.049087 0.000000
vt -0.000000 0.045311 0.000000
vt 0.568253 0.024544 0.000000
vt -0.000000 0.015104 0.000000
vt 0.551777 0.000000 0.000000
vt -0.000000 -0.015104 0.000000
vt 0.533598 -0.024544 0.000000
vt -0.000000 -0.045311 0.000000
vt 0.513893 -0.049087 0.000000
vt -0.000000 -0.075519 0.000000
vt 0.492849 -0.073631 0.000000
vt 0.470671 -0.098175 0.000000
vt -0.000000 -0.105727 0.000000
vt 0.447571 -0.122718 0.000000
vt -0.000000 -0.135934 0.000000
vt 0.423773 -0.147262 0.000000
vt -0.000000 -0.166142 0.000000
vt 0.399504 -0.171806 0.000000
vt -0.625000 -0.166142 0.000000
vt 0.623796 0.171806 0.000000
vt 0.625000 0.196350 0.000000
vt -0.625000 -0.135934 0.000000
vt -0.625000 -0.105727 0.000000
vt -0.625000 -0.075519 0.000000
vt -0.625000 -0.045311 0.000000
vt -0.625000 -0.015104 0.000000
vt -0.625000 0.015104 0.000000
vt -0.625000 0.045311 0.000000
vt -0.625000 0.075519 0.000000
vt -0.625000 0.105727 0.000000
vt -0.625000 0.135934 0.000000
vt -1.625000 -0.196350 0.000000
vt 0.375000 -0.196350 0.000000
vt -1.649504 -0.171806 0.000000
vt -1.250000 -0.166142 0.000000
vt -1.673773 -0.147262 0.000000
vt -1.250000 -0.135934 0.000000
vt -1.697571 -0.122718 0.000000
vt -1.250000 -0.105727 0.000000
vt -1.720671 -0.098175 0.000000
vt -1.250000 -0.075519 0.000000
vt -1.742849 -0.073631 0.000000
vt -1.763893 -0.049087 0.000000
vt -1.250000 -0.045311 0.000000
vt -1.783598 -0.024544 0.000000
vt -1.250000 -0.015104 0.000000
vt -1.801777 0.000000 0.000000
vt -1.250000 0.015104 0.000000
vt -1.818253 0.024544 0.000000
vt -1.250000 0.045311 0.000000
vt -1.832867 0.049087 0.000000
vt -1.250000 0.075519 0.000000
vt -1.845480 0.073631 0.000000
vt -1.855970 0.098175 0.000000
vt -1.250000 0.105727 0.000000
vt -1.864235 0.122718 0.000000
vt -1.250000 0.135934 0.000000
vt -1.870196 0.147262 0.000000
vt -1.250000 0.166142 0.000000
vt -1.873796 0.171806 0.000000
vt -1.875000 0.196350 0.000000
vt -0.625000 0.166142 0.000000
vt 0.000000 0.166142 0.000000
vt 0.000000 0.135934 0.000000
vt 0.620196 0.147262 0.000000
vt 0.614235 0.122718 0.000000
vt 0.000000 0.105727 0.000000
vt 0.605970 0.098175 0.000000
vt 0.000000 0.075519 0.000000
vt 0.595480 0.073631 0.000000
vt 0.582867 0.049087 0.000000
vt 0.000000 0.045311 0.000000
vt 0.568253 0.024544 0.000000
vt 0.000000 0.015104 0.000000
vt 0.551777 0.000000 0.000000
vt 0.000000 -0.015104 0.000000
vt 0.533598 -0.024544 0.000000
vt 0.000000 -0.045311 0.000000
vt 0.513893 -0.049087 0.000000
vt 0.000000 -0.075519 0.000000
vt 0.492849 -0.073631 0.000000
vt 0.470671 -0.098175 0.000000
vt 0.000000 -0.105727 0.000000
vt 0.447571 -0.122718 0.000000
vt 0.000000 -0.135934 0.000000
vt 0.423773 -0.147262 0.000000
vt 0.000000 -0.166142 0.000000
vt 0.399504 -0.171806 0.000000
vt -0.625000 -0.166142 0.000000
vt 0.623796 0.171806 0.000000
vt 0.625000 0.196350 0.000000
vt -0.625000 -0.135934 0.000000
vt -0.625000 -0.105727 0.000000
vt -0.625000 -0.075519 0.000000
vt -0.625000 -0.045311 0.000000
vt -0.625000 -0.015104 0.000000
vt -0.625000 0.015104 0.000000
vt -0.625000 0.045311 0.000000
vt -0.625000 0.075519 0.000000
vt -0.625000 0.105727 0.000000
vt -0.625000 0.135934 0.000000
vt 0.625000 0.196350 0.000000
vt -1.875000 0.196350 0.000000
vt 0.623796 0.171806 0.000000
vt 0.000000 0.166142 0.000000
vt 0.620196 0.147262 0.000000
vt -0.000000 0.135934 0.000000
vt 0.614235 0.122718 0.000000
vt 0.000000 0.105727 0.000000
vt 0.605970 0.098175 0.000000
vt 0.000000 0.075519 0.000000
vt 0.595480 0.073631 0.000000
vt 0.582867 0.049087 0.000000
vt 0.000000 0.045311 0.000000
vt 0.568253 0.024544 0.000000
vt -0.000000 0.015104 0.000000
vt 0.551777 0.000000 0.000000
vt 0.000000 -0.015104 0.000000
vt 0.533598 -0.024544 0.000000
vt 0.000000 -0.045311 0.000000
vt 0.513893 -0.049087 0.000000
vt 0.000000 -0.075519 0.000000
vt 0.492849 -0.073631 0.000000
vt 0.470671 -0.098175 0.000000
vt 0.000000 -0.105727 0.000000
vt 0.447571 -0.122718 0.000000
vt 0.000000 -0.135934 0.000000
vt 0.423773 -0.147262 0.000000
vt 0.000000 -0.166142 0.000000
vt 0.399504 -0.171806 0.000000
vt 0.375000 -0.196350 0.000000
vt -0.625000 -0.166142 0.000000
vt -1.250000 -0.166142 0.000000
vt -1.250000 -0.135934 0.000000
vt -1.673773 -0.147262 0.000000
vt -1.697571 -0.122718 0.000000
vt -1.250000 -0.105727 0.000000
vt -1.720671 -0.098175 0.000000
vt -1.250000 -0.075519 0.000000
vt -1.742849 -0.073631 0.000000
vt -1.763893 -0.049087 0.000000
vt -1.250000 -0.045311 0.000000
vt -1.783598 -0.024544 0.000000
vt -1.250000 -0.015104 0.000000
vt -1.801777 0.000000 0.000000
vt -1.250000 0.015104 0.000000
vt -1.818253 0.024544 0.000000
vt -1.250000 0.045311 0.000000
vt -1.832867 0.049087 0.000000
vt -1.250000 0.075519 0.000000
vt -1.845480 0.073631 0.000000
vt -1.855970 0.098175 0.000000
vt -1.250000 0.105727 0.000000
vt -1.864235 0.122718 0.000000
vt -1.250000 0.135934 0.000000
vt -1.870196 0.147262 0.000000
vt -1.250000 0.166142 0.000000
vt -1.873796 0.171806 0.000000
vt -0.625000 0.166142 0.000000
vt -1.649504 -0.171806 0.000000
vt -1.625000 -0.196350 0.000000
vt -0.625000 0.135934 0.000000
vt -0.625000 0.105727 0.000000
vt -0.625000 0.075519 0.000000
vt -0.625000 0.045311 0.000000
vt -0.625000 0.015104 0.000000
vt -0.625000 -0.015104 0.000000
vt -0.625000 -0.045311 0.000000
vt -0.625000 -0.075519 0.000000
vt -0.625000 -0.105727 0.000000
vt -0.625000 -0.135934 0.000000
vt 2.500000 2.250000 0.000000
vt 0.000000 2.250000 0.000000
vt 2.500000 0.000000 0.000000
vt 0.000000 0.000000 0.000000
vt 2.500000 2.250000 0.000000
vt -0.000000 2.250000 0.000000
vt 2.500000 -0.000000 0.000000
vt 0.000000 -0.000000 0.000000
vt -1.000000 -1.000000 0.000000
vt 1.000000 -1.000000 0.000000
vt -1.000000 1.000000 0.000000
vt 1.000000 1.000000 0.000000
vt 2.500000 2.250000 0.000000
vt -0.000000 2.250000 0.000000
vt 2.500000 0.000000 0.000000
vt 0.000000 -0.000000 0.000000
vt 2.500000 2.250000 0.000000
vt 0.000000 2.250000 0.000000
vt 2.500000 0.000000 0.000000
vt 0.000000 0.000000 0.000000
vt 1.250000 1.250000 0.000000
vt 1.250000 -1.250000 0.000000
vt 1.500000 -1.500000 0.000000
vt -1.250000 -1.250000 0.000000
vt -1.500000 -1.500000 0.000000
vt -1.250000 1.250000 0.000000
vt -1.500000 1.500000 0.000000
vt 1.500000 1.500000 0.000000
vt 0.000000 0.000000 0.000000
vt 3.000000 -0.000000 0.000000
vt 0.000000 6.000000 0.000000
vt 3.000000 6.000000 0.000000
vt 0.000000 0.000000 0.000000
vt 3.000000 0.000000 0.000000
vt 0.000000 6.000000 0.000000
vt 3.000000 6.000000 0.000000
vt 0.000000 0.000000 0.000000
vt 3.000000 0.000000 0.000000
vt -0.000000 6.000000 0.000000
vt 3.000000 6.000000 0.000000
vt 0.000000 0.000000 0.000000
vt 3.000000 -0.000000 0.000000
vt -0.000000 6.000000 0.000000
vt 3.000000 6.000000 0.000000
vt 1.500000 1.500000 0.000000
vt -1.500000 1.500000 0.000000
vt 1.500000 -1.500000 0.000000
vt -1.500000 -1.500000 0.000000
vn 0.000000 -0.000000 -100.000000
vn 0.000000 -0.000000 -100.000000
vn -9.801714 -0.000000 -99.518473
vn -12.053668 -0.000000 -99.270887
vn -19.509032 -0.000000 -98.078528
vn -23.931566 -0.000000 -97.094182
vn -29.028468 -0.000000 -95.694034
vn -35.460489 -0.000000 -93.501624
vn -38.268343 -0.000000 -92.387953
vn -46.472317 -0.000000 -88.545603
vn -47.139674 -0.000000 -88.192126
vn -55.557023 -0.000000 -83.146961
vn -56.806475 -0.000000 -82.298387
vn -63.439328 -0.000000 -77.301045
vn -66.312266 -0.000000 -74.851075
vn -70.710678 -0.000000 -70.710678
vn -74.851075 -0.000000 -66.312266
vn -77.301045 -0.000000 -63.439328
vn -82.298387 -0.000000 -56.806475
vn -83.146961 -0.000000 -55.557023
vn -88.545603 -0.000000 -46.472317
vn -88.192126 -0.000000 -47.139674
vn -92.387953 -0.000000 -38.268343
vn -93.501624 -0.000000 -35.460489
vn -95.694034 -0.000000 -29.028468
vn -97.094182 -0.000000 -23.931566
vn -98.078528 -0.000000 -19.509032
vn -99.270887 -0.000000 -12.053668
vn -99.518473 -0.000000 -9.801714
vn -100.000000 0.000000 0.000000
vn -99.270887 -0.000000 -12.053668
vn -99.270887 -0.000000 -12.053668
vn -97.094182 -0.000000 -23.931566
vn -98.078528 -0.000000 -19.509032
vn -95.694034 -0.000000 -29.028468
vn -93.501624 -0.000000 -35.460489
vn -92.387953 -0.000000 -38.268343
vn -88.545603 -0.000000 -46.472317
vn -88.192126 -0.000000 -47.139674
vn -83.146961 -0.000000 -55.557023
vn -82.298387 -0.000000 -56.806475
vn -77.301045 -0.000000 -63.439328
vn -74.851075 -0.000000 -66.312266
vn -70.710678 -0.000000 -70.710678
vn -66.312266 -0.000000 -74.851075
vn -63.439328 -0.000000 -77.301045
vn -56.806475 -0.000000 -82.298387
vn -55.557023 -0.000000 -83.146961
vn -46.472317 -0.000000 -88.545603
vn -47.139674 -0.000000 -88.192126
vn -38.268343 -0.000000 -92.387953
vn -35.460489 -0.000000 -93.501624
vn -29.028468 -0.000000 -95.694034
vn -23.931566 -0.000000 -97.094182
vn -19.509032 -0.000000 -98.078528
vn -12.053668 -0.000000 -99.270887
vn -9.801714 -0.000000 -99.518473
vn -12.053668 -0.000000 -99.270887
vn -99.518473 -0.000000 -9.801714
vn -100.000000 -0.000000 -0.000000
vn -23.931566 -0.000000 -97.094182
vn -35.460489 -0.000000 -93.501624
vn -46.472317 -0.000000 -88.545603
vn -56.806475 -0.000000 -82.298387
vn -66.312266 -0.000000 -74.851075
vn -74.851075 -0.000000 -66.312266
vn -82.298387 -0.000000 -56.806475
vn -88.545603 -0.000000 -46.472317
vn -93.501624 -0.000000 -35.460489
vn -97.094182 -0.000000 -23.931566
vn -0.000000 0.000000 -100.000000
vn 0.000000 -9.801714 -99.518473
vn 0.000000 -12.053668 -99.270887
vn 0.000000 -19.509032 -98.078528
vn 0.000000 -23.931566 -97.094182
vn 0.000000 -29.028468 -95.694034
vn 0.000000 -35.460489 -93.501624
vn 0.000000 -38.268343 -92.387953
vn 0.000000 -46.472317 -88.545603
vn 0.000000 -47.139674 -88.192126
vn 0.000000 -55.557023 -83.146961
vn 0.000000 -56.806475 -82.298387
vn 0.000000 -63.439328 -77.301045
vn 0.000000 -66.312266 -74.851075
vn 0.000000 -70.710678 -70.710678
vn 0.000000 -74.851075 -66.312266
vn 0.000000 -77.301045 -63.439328
vn 0.000000 -82.298387 -56.806475
vn 0.000000 -83.146961 -55.557023
vn 0.000000 -88.545603 -46.472317
vn 0.000000 -88.192126 -47.139674
vn 0.000000 -92.387953 -38.268343
vn 0.000000 -93.501624 -35.460489
vn 0.000000 -95.694034 -29.028468
vn 0.000000 -97.094182 -23.931566
vn 0.000000 -98.078528 -19.509032
vn 0.000000 -99.270887 -12.053668
vn 0.000000 -99.518473 -9.801714
vn 0.000000 -100.000000 0.000000
vn 0.000000 -99.270887 -12.053668
vn 0.000000 -99.270887 -12.053668
vn 0.000000 -97.094182 -23.931566
vn 0.000000 -98.078528 -19.509032
vn 0.000000 -95.694034 -29.028468
vn 0.000000 -93.501624 -35.460489
vn 0.000000 -92.387953 -38.268343
vn 0.000000 -88.545603 -46.472317
vn 0.000000 -88.192126 -47.139674
vn 0.000000 -83.146961 -55.557023
vn 0.000000 -82.298387 -56.806475
vn 0.000000 -77.301045 -63.439328
vn 0.000000 -74.851075 -66.312266
vn 0.000000 -70.710678 -70.710678
vn 0.000000 -66.312266 -74.851075
vn 0.000000 -63.439328 -77.301045
vn 0.000000 -56.806475 -82.298387
vn 0.000000 -55.557023 -83.146961
vn 0.000000 -46.472317 -88.545603
vn 0.000000 -47.139674 -88.192126
vn 0.000000 -38.268343 -92.387953
vn 0.000000 -35.460489 -93.501624
vn 0.000000 -29.028468 -95.694034
vn 0.000000 -23.931566 -97.094182
vn 0.000000 -19.509032 -98.078528
vn 0.000000 -12.053668 -99.270887
vn 0.000000 -9.801714 -99.518473
vn 0.000000 -12.053668 -99.270887
vn 0.000000 -99.518473 -9.801714
vn 0.000000 -100.000000 0.000000
vn 0.000000 -23.931566 -97.094182
vn 0.000000 -35.460489 -93.501624
vn 0.000000 -46.472317 -88.545603
vn 0.000000 -56.806475 -82.298387
vn 0.000000 -66.312266 -74.851075
vn 0.000000 -74.851075 -66.312266
vn 0.000000 -82.298387 -56.806475
vn 0.000000 -88.545603 -46.472317
vn 0.000000 -93.501624 -35.460489
vn 0.000000 -97.094182 -23.931566
vn -0.000000 -0.000000 -100.000000
vn 9.801714 -0.000000 -99.518473
vn 12.053668 -0.000000 -99.270887
vn 19.509032 -0.000000 -98.078528
vn 23.931566 -0.000000 -97.094182
vn 29.028468 -0.000000 -95.694034
vn 35.460489 -0.000000 -93.501624
vn 38.268343 -0.000000 -92.387953
vn 46.472317 -0.000000 -88.545603
vn 47.139674 -0.000000 -88.192126
vn 55.557023 -0.000000 -83.146961
vn 56.806475 -0.000000 -82.298387
vn 63.439328 -0.000000 -77.301045
vn 66.312266 -0.000000 -74.851075
vn 70.710678 -0.000000 -70.710678
vn 74.851075 -0.000000 -66.312266
vn 77.301045 -0.000000 -63.439328
vn 82.298387 -0.000000 -56.806475
vn 83.146961 -0.000000 -55.557023
vn 88.545603 -0.000000 -46.472317
vn 88.192126 -0.000000 -47.139674
vn 92.387953 -0.000000 -38.268343
vn 93.501624 -0.000000 -35.460489
vn 95.694034 -0.000000 -29.028468
vn 97.094182 -0.000000 -23.931566
vn 98.078528 -0.000000 -19.509032
vn 99.270887 -0.000000 -12.053668
vn 99.518473 -0.000000 -9.801714
vn 100.000000 -0.000000 -0.000000
vn 99.270887 -0.000000 -12.053668
vn 99.270887 -0.000000 -12.053668
vn 97.094182 -0.000000 -23.931566
vn 98.078528 -0.000000 -19.509032
vn 95.694034 -0.000000 -29.028468
vn 93.501624 -0.000000 -35.460489
vn 92.387953 -0.000000 -38.268343
vn 88.545603 -0.000000 -46.472317
vn 88.192126 -0.000000 -47.139674
vn 83.146961 -0.000000 -55.557023
vn 82.298387 -0.000000 -56.806475
vn 77.301045 -0.000000 -63.439328
vn 74.851075 -0.000000 -66.312266
vn 70.710678 -0.000000 -70.710678
vn 66.312266 -0.000000 -74.851075
vn 63.439328 -0.000000 -77.301045
vn 56.806475 -0.000000 -82.298387
vn 55.557023 -0.000000 -83.146961
vn 46.472317 -0.000000 -88.545603
vn 47.139674 -0.000000 -88.192126
vn 38.268343 -0.000000 -92.387953
vn 35.460489 -0.000000 -93.501624
vn 29.028468 -0.000000 -95.694034
vn 23.931566 -0.000000 -97.094182
vn 19.509032 -0.000000 -98.078528
vn 12.053668 -0.000000 -99.270887
vn 9.801714 -0.000000 -99.518473
vn 12.053668 -0.000000 -99.270887
vn 99.518473 -0.000000 -9.801714
vn 100.000000 -0.000000 0.000000
vn 23.931566 -0.000000 -97.094182
vn 35.460489 -0.000000 -93.501624
vn 46.472317 -0.000000 -88.545603
vn 56.806475 -0.000000 -82.298387
vn 66.312266 -0.000000 -74.851075
vn 74.851075 -0.000000 -66.312266
vn 82.298387 -0.000000 -56.806475
vn 88.545603 -0.000000 -46.472317
vn 93.501624 -0.000000 -35.460489
vn 97.094182 -0.000000 -23.931566
vn 0.000000 100.000000 0.000000
vn 0.000000 100.000000 0.000000
vn -0.000000 99.518473 -9.801714
vn -0.000000 99.270887 -12.053668
vn -0.000000 98.078528 -19.509032
vn -0.000000 97.094182 -23.931566
vn -0.000000 95.694034 -29.028468
vn -0.000000 93.501624 -35.460489
vn -0.000000 92.387953 -38.268343
vn -0.000000 88.545603 -46.472317
vn -0.000000 88.192126 -47.139674
vn -0.000000 83.146961 -55.557023
vn -0.000000 82.298387 -56.806475
vn -0.000000 77.301045 -63.439328
vn -0.000000 74.851075 -66.312266
vn -0.000000 70.710678 -70.710678
vn -0.000000 66.312266 -74.851075
vn -0.000000 63.439328 -77.301045
vn -0.000000 56.806475 -82.298387
vn -0.000000 55.557023 -83.146961
vn -0.000000 46.472317 -88.545603
vn -0.000000 47.139674 -88.192126
vn -0.000000 38.268343 -92.387953
vn -0.000000 35.460489 -93.501624
vn -0.000000 29.028468 -95.694034
vn -0.000000 23.931566 -97.094182
vn -0.000000 19.509032 -98.078528
vn -0.000000 12.053668 -99.270887
vn -0.000000 9.801714 -99.518473
vn -0.000000 12.053668 -99.270887
vn -0.000000 12.053668 -99.270887
vn -0.000000 23.931566 -97.094182
vn -0.000000 19.509032 -98.078528
vn -0.000000 29.028468 -95.694034
vn -0.000000 35.460489 -93.501624
vn -0.000000 38.268343 -92.387953
vn -0.000000 46.472317 -88.545603
vn -0.000000 47.139674 -88.192126
vn -0.000000 55.557023 -83.146961
vn -0.000000 56.806475 -82.298387
vn -0.000000 63.439328 -77.301045
vn -0.000000 66.312266 -74.851075
vn -0.000000 70.710678 -70.710678
vn -0.000000 74.851075 -66.312266
vn -0.000000 77.301045 -63.439328
vn -0.000000 82.298387 -56.806475
vn -0.000000 83.146961 -55.557023
vn -0.000000 88.545603 -46.472317
vn -0.000000 88.192126 -47.139674
vn -0.000000 92.387953 -38.268343
vn -0.000000 93.501624 -35.460489
vn -0.000000 95.694034 -29.028468
vn -0.000000 97.094182 -23.931566
vn -0.000000 98.078528 -19.509032
vn -0.000000 99.270887 -12.053668
vn -0.000000 99.518473 -9.801714
vn -0.000000 99.270887 -12.053668
vn -0.000000 9.801714 -99.518473
vn -0.000000 97.094182 -23.931566
vn -0.000000 93.501624 -35.460489
vn -0.000000 88.545603 -46.472317
vn -0.000000 82.298387 -56.806475
vn -0.000000 74.851075 -66.312266
vn -0.000000 66.312266 -74.851075
vn -0.000000 56.806475 -82.298387
vn -0.000000 46.472317 -88.545603
vn -0.000000 35.460489 -93.501624
vn -0.000000 23.931566 -97.094182
vn 0.000000 100.000000 -0.000000
vn 0.000000 100.000000 -0.000000
vn -100.000000 0.000000 0.000000
vn -100.000000 0.000000 0.000000
vn 0.000000 -100.000000 0.000000
vn 0.000000 -100.000000 0.000000
vn 100.000000 -0.000000 0.000000
vn 100.000000 -0.000000 0.000000
vn 0.000000 -0.000000 -100.000000
vn 0.000000 -0.000000 -100.000000
vn 0.000000 -0.000000 -100.000000
vn 0.000000 -0.000000 -100.000000
vn 0.000000 -0.000000 -100.000000
vn 0.000000 -0.000000 -100.000000
vn 0.000000 -0.000000 -100.000000
vn 0.000000 -0.000000 -100.000000
vn -100.000000 -0.000000 0.000000
vn -100.000000 -0.000000 0.000000
vn -100.000000 -0.000000 0.000000
vn -100.000000 -0.000000 0.000000
vn 0.000000 100.000000 -0.000000
vn 0.000000 100.000000 -0.000000
vn 0.000000 100.000000 -0.000000
vn 0.000000 100.000000 -0.000000
vn 100.000000 0.000000 -0.000000
vn 100.000000 0.000000 -0.000000
vn 100.000000 0.000000 -0.000000
vn 100.000000 0.000000 -0.000000
vn -0.000000 -100.000000 0.000000
vn -0.000000 -100.000000 0.000000
vn -0.000000 -100.000000 0.000000
vn -0.000000 -100.000000 0.000000
vn 0.000000 0.000000 100.000000
vn 0.000000 0.000000 100.000000
vn 0.000000 0.000000 100.000000
vn 0.000000 0.000000 100.000000
usemtl ABS_(White)
f 1/1/1 2/2/2 34/3/3
f 34/3/3 2/2/2 37/4/4
f 34/3/3 37/4/4 33/5/5
f 33/5/5 37/4/4 40/6/6
f 33/5/5 40/6/6 32/7/7
f 32/7/7 40/6/6 43/8/8
f 32/7/7 43/8/8 31/9/9
f 31/9/9 43/8/8 46/10/10
f 31/9/9 46/10/10 30/11/11
f 30/11/11 46/10/10 29/12/12
f 29/12/12 46/10/10 49/13/13
f 29/12/12 49/13/13 28/14/14
f 28/14/14 49/13/13 52/15/15
f 28/14/14 52/15/15 27/16/16
f 27/16/16 52/15/15 55/17/17
f 27/16/16 55/17/17 26/18/18
f 26/18/18 55/17/17 58/19/19
f 26/18/18 58/19/19 25/20/20
f 25/20/20 58/19/19 61/21/21
f 25/20/20 61/21/21 24/22/22
f 24/22/22 61/21/21 23/23/23
f 23/23/23 61/21/21 64/24/24
f 23/23/23 64/24/24 22/25/25
f 22/25/25 64/24/24 67/26/26
f 22/25/25 67/26/26 21/27/27
f 21/27/27 67/26/26 70/28/28
f 21/27/27 70/28/28 20/29/29
f 20/29/29 70/28/28 19/30/30
f 19/30/30 70/28/28 69/31/31
f 19/30/30 69/31/31 68/32/32
f 68/32/32 69/31/31 65/33/33
f 68/32/32 65/33/33 16/34/34
f 16/34/34 65/33/33 15/35/35
f 15/35/35 65/33/33 62/36/36
f 15/35/35 62/36/36 14/37/37
f 14/37/37 62/36/36 59/38/38
f 14/37/37 59/38/38 13/39/39
f 13/39/39 59/38/38 12/40/40
f 12/40/40 59/38/38 56/41/41
f 12/40/40 56/41/41 11/42/42
f 11/42/42 56/41/41 53/43/43
f 11/42/42 53/43/43 10/44/44
f 10/44/44 53/43/43 50/45/45
f 10/44/44 50/45/45 9/46/46
f 9/46/46 50/45/45 47/47/47
f 9/46/46 47/47/47 8/48/48
f 8/48/48 47/47/47 44/49/49
f 8/48/48 44/49/49 7/50/50
f 7/50/50 44/49/49 6/51/51
f 6/51/51 44/49/49 41/52/52
f 6/51/51 41/52/52 5/53/53
f 5/53/53 41/52/52 38/54/54
f 5/53/53 38/54/54 4/55/55
f 4/55/55 38/54/54 35/56/56
f 4/55/55 35/56/56 3/57/57
f 3/57/57 35/56/56 2/2/2
f 2/2/2 35/56/56 36/58/58
f 2/2/2 36/58/58 37/4/4
f 37/4/4 36/58/58 40/6/6
f 16/34/34 17/59/59 68/32/32
f 68/32/32 17/59/59 19/30/30
f 17/59/59 18/60/60 19/30/30
f 36/58/58 35/56/56 39/61/61
f 39/61/61 35/56/56 38/54/54
f 39/61/61 38/54/54 42/62/62
f 42/62/62 38/54/54 41/52/52
f 42/62/62 41/52/52 45/63/63
f 45/63/63 41/52/52 44/49/49
f 45/63/63 44/49/49 48/64/64
f 48/64/64 44/49/49 47/47/47
f 48/64/64 47/47/47 51/65/65
f 51/65/65 47/47/47 50/45/45
f 51/65/65 50/45/45 54/66/66
f 54/66/66 50/45/45 53/43/43
f 54/66/66 53/43/43 57/67/67
f 57/67/67 53/43/43 56/41/41
f 57/67/67 56/41/41 60/68/68
f 60/68/68 56/41/41 59/38/38
f 60/68/68 59/38/38 63/69/69
f 63/69/69 59/38/38 62/36/36
f 63/69/69 62/36/36 66/70/70
f 66/70/70 62/36/36 65/33/33
f 66/70/70 65/33/33 69/31/31
f 43/8/8 40/6/6 39/61/61
f 39/61/61 40/6/6 36/58/58
f 43/8/8 39/61/61 42/62/62
f 46/10/10 43/8/8 42/62/62
f 46/10/10 42/62/62 45/63/63
f 49/13/13 46/10/10 45/63/63
f 49/13/13 45/63/63 48/64/64
f 52/15/15 49/13/13 48/64/64
f 52/15/15 48/64/64 51/65/65
f 55/17/17 52/15/15 51/65/65
f 55/17/17 51/65/65 54/66/66
f 58/19/19 55/17/17 54/66/66
f 58/19/19 54/66/66 57/67/67
f 61/21/21 58/19/19 57/67/67
f 61/21/21 57/67/67 60/68/68
f 64/24/24 61/21/21 60/68/68
f 64/24/24 60/68/68 63/69/69
f 67/26/26 64/24/24 63/69/69
f 67/26/26 63/69/69 66/70/70
f 70/28/28 67/26/26 66/70/70
f 70/28/28 66/70/70 69/31/31
f 2/71/2 71/72/71 3/73/72
f 3/73/72 71/72/71 90/74/73
f 3/73/72 90/74/73 4/75/74
f 4/75/74 90/74/73 93/76/75
f 4/75/74 93/76/75 5/77/76
f 5/77/76 93/76/75 96/78/77
f 5/77/76 96/78/77 6/79/78
f 6/79/78 96/78/77 99/80/79
f 6/79/78 99/80/79 7/81/80
f 7/81/80 99/80/79 8/82/81
f 8/82/81 99/80/79 102/83/82
f 8/82/81 102/83/82 9/84/83
f 9/84/83 102/83/82 105/85/84
f 9/84/83 105/85/84 10/86/85
f 10/86/85 105/85/84 108/87/86
f 10/86/85 108/87/86 11/88/87
f 11/88/87 108/87/86 111/89/88
f 11/88/87 111/89/88 12/90/89
f 12/90/89 111/89/88 114/91/90
f 12/90/89 114/91/90 13/92/91
f 13/92/91 114/91/90 14/93/92
f 14/93/92 114/91/90 117/94/93
f 14/93/92 117/94/93 15/95/94
f 15/95/94 117/94/93 120/96/95
f 15/95/94 120/96/95 16/97/96
f 16/97/96 120/96/95 123/98/97
f 16/97/96 123/98/97 17/99/98
f 17/99/98 123/98/97 18/100/99
f 18/100/99 123/98/97 122/101/100
f 18/100/99 122/101/100 121/102/101
f 121/102/101 122/101/100 118/103/102
f 121/102/101 118/103/102 85/104/103
f 85/104/103 118/103/102 84/105/104
f 84/105/104 118/103/102 115/106/105
f 84/105/104 115/106/105 83/107/106
f 83/107/106 115/106/105 112/108/107
f 83/107/106 112/108/107 82/109/108
f 82/109/108 112/108/107 81/110/109
f 81/110/109 112/108/107 109/111/110
f 81/110/109 109/111/110 80/112/111
f 80/112/111 109/111/110 106/113/112
f 80/112/111 106/113/112 79/114/113
f 79/114/113 106/113/112 103/115/114
f 79/114/113 103/115/114 78/116/115
f 78/116/115 103/115/114 100/117/116
f 78/116/115 100/117/116 77/118/117
f 77/118/117 100/117/116 97/119/118
f 77/118/117 97/119/118 76/120/119
f 76/120/119 97/119/118 75/121/120
f 75/121/120 97/119/118 94/122/121
f 75/121/120 94/122/121 74/123/122
f 74/123/122 94/122/121 91/124/123
f 74/123/122 91/124/123 73/125/124
f 73/125/124 91/124/123 88/126/125
f 73/125/124 88/126/125 72/127/126
f 72/127/126 88/126/125 71/72/71
f 71/72/71 88/126/125 89/128/127
f 71/72/71 89/128/127 90/74/73
f 90/74/73 89/128/127 93/76/75
f 85/104/103 86/129/128 121/102/101
f 121/102/101 86/129/128 18/100/99
f 86/129/128 87/130/129 18/100/99
f 89/128/127 88/126/125 92/131/130
f 92/131/130 88/126/125 91/124/123
f 92/131/130 91/124/123 95/132/131
f 95/132/131 91/124/123 94/122/121
f 95/132/131 94/122/121 98/133/132
f 98/133/132 94/122/121 97/119/118
f 98/133/132 97/119/118 101/134/133
f 101/134/133 97/119/118 100/117/116
f 101/134/133 100/117/116 104/135/134
f 104/135/134 100/117/116 103/115/114
f 104/135/134 103/115/114 107/136/135
f 107/136/135 103/115/114 106/113/112
f 107/136/135 106/113/112 110/137/136
f 110/137/136 106/113/112 109/111/110
f 110/137/136 109/111/110 113/138/137
f 113/138/137 109/111/110 112/108/107
f 113/138/137 112/108/107 116/139/138
f 116/139/138 112/108/107 115/106/105
f 116/139/138 115/106/105 119/140/139
f 119/140/139 115/106/105 118/103/102
f 119/140/139 118/103/102 122/101/100
f 96/78/77 93/76/75 92/131/130
f 92/131/130 93/76/75 89/128/127
f 96/78/77 92/131/130 95/132/131
f 99/80/79 96/78/77 95/132/131
f 99/80/79 95/132/131 98/133/132
f 102/83/82 99/80/79 98/133/132
f 102/83/82 98/133/132 101/134/133
f 105/85/84 102/83/82 101/134/133
f 105/85/84 101/134/133 104/135/134
f 108/87/86 105/85/84 104/135/134
f 108/87/86 104/135/134 107/136/135
f 111/89/88 108/87/86 107/136/135
f 111/89/88 107/136/135 110/137/136
f 114/91/90 111/89/88 110/137/136
f 114/91/90 110/137/136 113/138/137
f 117/94/93 114/91/90 113/138/137
f 117/94/93 113/138/137 116/139/138
f 120/96/95 117/94/93 116/139/138
f 120/96/95 116/139/138 119/140/139
f 123/98/97 120/96/95 119/140/139
f 123/98/97 119/140/139 122/101/100
f 71/141/71 124/142/140 72/143/141
f 72/143/141 124/142/140 143/144/142
f 72/143/141 143/144/142 73/145/143
f 73/145/143 143/144/142 146/146/144
f 73/145/143 146/146/144 74/147/145
f 74/147/145 146/146/144 149/148/146
f 74/147/145 149/148/146 75/149/147
f 75/149/147 149/148/146 152/150/148
f 75/149/147 152/150/148 76/151/149
f 76/151/149 152/150/148 77/152/150
f 77/152/150 152/150/148 155/153/151
f 77/152/150 155/153/151 78/154/152
f 78/154/152 155/153/151 158/155/153
f 78/154/152 158/155/153 79/156/154
f 79/156/154 158/155/153 161/157/155
f 79/156/154 161/157/155 80/158/156
f 80/158/156 161/157/155 164/159/157
f 80/158/156 164/159/157 81/160/158
f 81/160/158 164/159/157 167/161/159
f 81/160/158 167/161/159 82/162/160
f 82/162/160 167/161/159 83/163/161
f 83/163/161 167/161/159 170/164/162
f 83/163/161 170/164/162 84/165/163
f 84/165/163 170/164/162 173/166/164
f 84/165/163 173/166/164 85/167/165
f 85/167/165 173/166/164 176/168/166
f 85/167/165 176/168/166 86/169/167
f 86/169/167 176/168/166 87/170/168
f 87/170/168 176/168/166 175/171/169
f 87/170/168 175/171/169 174/172/170
f 174/172/170 175/171/169 171/173/171
f 174/172/170 171/173/171 138/174/172
f 138/174/172 171/173/171 137/175/173
f 137/175/173 171/173/171 168/176/174
f 137/175/173 168/176/174 136/177/175
f 136/177/175 168/176/174 165/178/176
f 136/177/175 165/178/176 135/179/177
f 135/179/177 165/178/176 134/180/178
f 134/180/178 165/178/176 162/181/179
f 134/180/178 162/181/179 133/182/180
f 133/182/180 162/181/179 159/183/181
f 133/182/180 159/183/181 132/184/182
f 132/184/182 159/183/181 156/185/183
f 132/184/182 156/185/183 131/186/184
f 131/186/184 156/185/183 153/187/185
f 131/186/184 153/187/185 130/188/186
f 130/188/186 153/187/185 150/189/187
f 130/188/186 150/189/187 129/190/188
f 129/190/188 150/189/187 128/191/189
f 128/191/189 150/189/187 147/192/190
f 128/191/189 147/192/190 127/193/191
f 127/193/191 147/192/190 144/194/192
f 127/193/191 144/194/192 126/195/193
f 126/195/193 144/194/192 141/196/194
f 126/195/193 141/196/194 125/197/195
f 125/197/195 141/196/194 124/142/140
f 124/142/140 141/196/194 142/198/196
f 124/142/140 142/198/196 143/144/142
f 143/144/142 142/198/196 146/146/144
f 138/174/172 139/199/197 174/172/170
f 174/172/170 139/199/197 87/170/168
f 139/199/197 140/200/198 87/170/168
f 142/198/196 141/196/194 145/201/199
f 145/201/199 141/196/194 144/194/192
f 145/201/199 144/194/192 148/202/200
f 148/202/200 144/194/192 147/192/190
f 148/202/200 147/192/190 151/203/201
f 151/203/201 147/192/190 150/189/187
f 151/203/201 150/189/187 154/204/202
f 154/204/202 150/189/187 153/187/185
f 154/204/202 153/187/185 157/205/203
f 157/205/203 153/187/185 156/185/183
f 157/205/203 156/185/183 160/206/204
f 160/206/204 156/185/183 159/183/181
f 160/206/204 159/183/181 163/207/205
f 163/207/205 159/183/181 162/181/179
f 163/207/205 162/181/179 166/208/206
f 166/208/206 162/181/179 165/178/176
f 166/208/206 165/178/176 169/209/207
f 169/209/207 165/178/176 168/176/174
f 169/209/207 168/176/174 172/210/208
f 172/210/208 168/176/174 171/173/171
f 172/210/208 171/173/171 175/171/169
f 149/148/146 146/146/144 145/201/199
f 145/201/199 146/146/144 142/198/196
f 149/148/146 145/201/199 148/202/200
f 152/150/148 149/148/146 148/202/200
f 152/150/148 148/202/200 151/203/201
f 155/153/151 152/150/148 151/203/201
f 155/153/151 151/203/201 154/204/202
f 158/155/153 155/153/151 154/204/202
f 158/155/153 154/204/202 157/205/203
f 161/157/155 158/155/153 157/205/203
f 161/157/155 157/205/203 160/206/204
f 164/159/157 161/157/155 160/206/204
f 164/159/157 160/206/204 163/207/205
f 167/161/159 164/159/157 163/207/205
f 167/161/159 163/207/205 166/208/206
f 170/164/162 167/161/159 166/208/206
f 170/164/162 166/208/206 169/209/207
f 173/166/164 170/164/162 169/209/207
f 173/166/164 169/209/207 172/210/208
f 176/168/166 173/166/164 172/210/208
f 176/168/166 172/210/208 175/171/169
f 19/211/209 140/212/210 20/213/211
f 20/213/211 140/212/210 179/214/212
f 20/213/211 179/214/212 21/215/213
f 21/215/213 179/214/212 182/216/214
f 21/215/213 182/216/214 22/217/215
f 22/217/215 182/216/214 185/218/216
f 22/217/215 185/218/216 23/219/217
f 23/219/217 185/218/216 188/220/218
f 23/219/217 188/220/218 24/221/219
f 24/221/219 188/220/218 25/222/220
f 25/222/220 188/220/218 191/223/221
f 25/222/220 191/223/221 26/224/222
f 26/224/222 191/223/221 194/225/223
f 26/224/222 194/225/223 27/226/224
f 27/226/224 194/225/223 197/227/225
f 27/226/224 197/227/225 28/228/226
f 28/228/226 197/227/225 200/229/227
f 28/228/226 200/229/227 29/230/228
f 29/230/228 200/229/227 203/231/229
f 29/230/228 203/231/229 30/232/230
f 30/232/230 203/231/229 31/233/231
f 31/233/231 203/231/229 206/234/232
f 31/233/231 206/234/232 32/235/233
f 32/235/233 206/234/232 209/236/234
f 32/235/233 209/236/234 33/237/235
f 33/237/235 209/236/234 212/238/236
f 33/237/235 212/238/236 34/239/237
f 34/239/237 212/238/236 1/240/1
f 1/240/1 212/238/236 211/241/238
f 1/240/1 211/241/238 210/242/239
f 210/242/239 211/241/238 207/243/240
f 210/242/239 207/243/240 126/244/241
f 126/244/241 207/243/240 127/245/242
f 127/245/242 207/243/240 204/246/243
f 127/245/242 204/246/243 128/247/244
f 128/247/244 204/246/243 201/248/245
f 128/247/244 201/248/245 129/249/246
f 129/249/246 201/248/245 130/250/247
f 130/250/247 201/248/245 198/251/248
f 130/250/247 198/251/248 131/252/249
f 131/252/249 198/251/248 195/253/250
f 131/252/249 195/253/250 132/254/251
f 132/254/251 195/253/250 192/255/252
f 132/254/251 192/255/252 133/256/253
f 133/256/253 192/255/252 189/257/254
f 133/256/253 189/257/254 134/258/255
f 134/258/255 189/257/254 186/259/256
f 134/258/255 186/259/256 135/260/257
f 135/260/257 186/259/256 136/261/258
f 136/261/258 186/259/256 183/262/259
f 136/261/258 183/262/259 137/263/260
f 137/263/260 183/262/259 180/264/261
f 137/263/260 180/264/261 138/265/262
f 138/265/262 180/264/261 177/266/263
f 138/265/262 177/266/263 139/267/264
f 139/267/264 177/266/263 140/212/210
f 140/212/210 177/266/263 178/268/265
f 140/212/210 178/268/265 179/214/212
f 179/214/212 178/268/265 182/216/214
f 126/244/241 125/269/266 210/242/239
f 210/242/239 125/269/266 1/240/1
f 125/269/266 124/270/140 1/240/1
f 178/268/265 177/266/263 181/271/267
f 181/271/267 177/266/263 180/264/261
f 181/271/267 180/264/261 184/272/268
f 184/272/268 180/264/261 183/262/259
f 184/272/268 183/262/259 187/273/269
f 187/273/269 183/262/259 186/259/256
f 187/273/269 186/259/256 190/274/270
f 190/274/270 186/259/256 189/257/254
f 190/274/270 189/257/254 193/275/271
f 193/275/271 189/257/254 192/255/252
f 193/275/271 192/255/252 196/276/272
f 196/276/272 192/255/252 195/253/250
f 196/276/272 195/253/250 199/277/273
f 199/277/273 195/253/250 198/251/248
f 199/277/273 198/251/248 202/278/274
f 202/278/274 198/251/248 201/248/245
f 202/278/274 201/248/245 205/279/275
f 205/279/275 201/248/245 204/246/243
f 205/279/275 204/246/243 208/280/276
f 208/280/276 204/246/243 207/243/240
f 208/280/276 207/243/240 211/241/238
f 185/218/216 182/216/214 181/271/267
f 181/271/267 182/216/214 178/268/265
f 185/218/216 181/271/267 184/272/268
f 188/220/218 185/218/216 184/272/268
f 188/220/218 184/272/268 187/273/269
f 191/223/221 188/220/218 187/273/269
f 191/223/221 187/273/269 190/274/270
f 194/225/223 191/223/221 190/274/270
f 194/225/223 190/274/270 193/275/271
f 197/227/225 194/225/223 193/275/271
f 197/227/225 193/275/271 196/276/272
f 200/229/227 197/227/225 196/276/272
f 200/229/227 196/276/272 199/277/273
f 203/231/229 200/229/227 199/277/273
f 203/231/229 199/277/273 202/278/274
f 206/234/232 203/231/229 202/278/274
f 206/234/232 202/278/274 205/279/275
f 209/236/234 206/234/232 205/279/275
f 209/236/234 205/279/275 208/280/276
f 212/238/236 209/236/234 208/280/276
f 212/238/236 208/280/276 211/241/238
f 140/281/210 19/282/209 214/283/277
f 214/283/277 19/282/209 213/284/278
f 19/285/30 18/286/60 213/287/279
f 213/287/279 18/286/60 215/288/280
f 1/289/1 124/290/140 2/291/2
f 2/291/2 124/290/140 71/292/71
f 18/293/99 87/294/129 215/295/281
f 215/295/281 87/294/129 216/296/282
f 87/297/168 140/298/198 216/299/283
f 216/299/283 140/298/198 214/300/284
f 216/301/285 214/302/286 219/303/287
f 219/303/287 214/302/286 213/304/288
f 219/303/287 213/304/288 218/305/289
f 218/305/289 213/304/288 215/306/290
f 218/305/289 215/306/290 217/307/291
f 217/307/291 215/306/290 216/301/285
f 217/307/291 216/301/285 220/308/292
f 220/308/292 216/301/285 219/303/287
f 221/309/293 222/310/294 217/311/295
f 217/311/295 222/310/294 218/312/296
f 222/313/297 223/314/298 218/315/299
f 218/315/299 223/314/298 219/316/300
f 223/317/301 224/318/302 219/319/303
f 219/319/303 224/318/302 220/320/304
f 224/321/305 221/322/306 220/323/307
f 220/323/307 221/322/306 217/324/308
f 221/325/309 224/326/310 222/327/311
f 222/327/311 224/326/310 223/328/312
# 224 vertices
# 328 texture params
# 312 normals
# 444 facets

# 1 groups
