# WaveFront *.obj file (generated by Autodesk ATF)
mtllib asset_socket.mtl
v -0.004500 -0.002985 0.070000
v -0.004113 -0.003036 0.070000
v -0.003751 -0.003185 0.070000
v -0.003441 -0.003423 0.070000
v -0.003202 -0.003733 0.070000
v -0.003052 -0.004094 0.070000
v -0.003000 -0.004482 0.070000
v -0.003000 -0.004482 0.040000
v -0.003052 -0.004094 0.040000
v -0.003202 -0.003733 0.040000
v -0.003441 -0.003423 0.040000
v -0.003751 -0.003185 0.040000
v -0.004113 -0.003036 0.040000
v -0.004500 -0.002985 0.040000
v -0.004113 -0.003036 0.062500
v -0.004113 -0.003036 0.055000
v -0.004113 -0.003036 0.047500
v -0.003751 -0.003185 0.062500
v -0.003751 -0.003185 0.055000
v -0.003751 -0.003185 0.047500
v -0.003441 -0.003423 0.062500
v -0.003441 -0.003423 0.055000
v -0.003441 -0.003423 0.047500
v -0.003202 -0.003733 0.062500
v -0.003202 -0.003733 0.055000
v -0.003202 -0.003733 0.047500
v -0.003052 -0.004094 0.062500
v -0.003052 -0.004094 0.055000
v -0.003052 -0.004094 0.047500
v -0.012910 -0.002985 0.040000
v -0.012910 -0.002985 0.070000
v -0.002984 -0.012910 0.070000
v -0.002984 -0.012910 0.040000
v 0.012910 -0.002985 0.070000
v 0.012910 -0.002985 0.040000
v 0.004485 -0.002985 0.040000
v 0.004485 -0.002985 0.070000
v 0.002985 -0.012910 0.040000
v 0.002985 -0.012910 0.070000
v 0.002985 -0.004485 0.070000
v 0.002985 -0.004485 0.040000
v 0.003036 -0.004097 0.070000
v 0.003186 -0.003735 0.070000
v 0.003424 -0.003424 0.070000
v 0.003735 -0.003186 0.070000
v 0.004097 -0.003036 0.070000
v 0.004097 -0.003036 0.040000
v 0.003735 -0.003186 0.040000
v 0.003424 -0.003424 0.040000
v 0.003186 -0.003735 0.040000
v 0.003036 -0.004097 0.040000
v 0.003036 -0.004097 0.062500
v 0.003036 -0.004097 0.055000
v 0.003036 -0.004097 0.047500
v 0.003186 -0.003735 0.062500
v 0.003186 -0.003735 0.055000
v 0.003186 -0.003735 0.047500
v 0.003424 -0.003424 0.062500
v 0.003424 -0.003424 0.055000
v 0.003424 -0.003424 0.047500
v 0.003735 -0.003186 0.062500
v 0.003735 -0.003186 0.055000
v 0.003735 -0.003186 0.047500
v 0.004097 -0.003036 0.062500
v 0.004097 -0.003036 0.055000
v 0.004097 -0.003036 0.047500
v -0.012910 0.002985 0.070000
v -0.012910 0.002985 0.040000
v -0.004485 0.002985 0.040000
v -0.004485 0.002985 0.070000
v -0.002985 0.004485 0.070000
v -0.003036 0.004097 0.070000
v -0.003186 0.003735 0.070000
v -0.003424 0.003424 0.070000
v -0.003735 0.003186 0.070000
v -0.004097 0.003036 0.070000
v -0.004097 0.003036 0.040000
v -0.003735 0.003186 0.040000
v -0.003424 0.003424 0.040000
v -0.003186 0.003735 0.040000
v -0.003036 0.004097 0.040000
v -0.002985 0.004485 0.040000
v -0.003036 0.004097 0.062500
v -0.003036 0.004097 0.055000
v -0.003036 0.004097 0.047500
v -0.003186 0.003735 0.062500
v -0.003186 0.003735 0.055000
v -0.003186 0.003735 0.047500
v -0.003424 0.003424 0.062500
v -0.003424 0.003424 0.055000
v -0.003424 0.003424 0.047500
v -0.003735 0.003186 0.062500
v -0.003735 0.003186 0.055000
v -0.003735 0.003186 0.047500
v -0.004097 0.003036 0.062500
v -0.004097 0.003036 0.055000
v -0.004097 0.003036 0.047500
v -0.002985 0.012910 0.040000
v -0.002985 0.012910 0.070000
v 0.002985 0.012910 0.040000
v 0.002985 0.012910 0.070000
v 0.004485 0.002985 0.070000
v 0.004097 0.003036 0.070000
v 0.003735 0.003186 0.070000
v 0.003424 0.003424 0.070000
v 0.003186 0.003735 0.070000
v 0.003036 0.004097 0.070000
v 0.002985 0.004485 0.070000
v 0.002985 0.004485 0.040000
v 0.003036 0.004097 0.040000
v 0.003186 0.003735 0.040000
v 0.003424 0.003424 0.040000
v 0.003735 0.003186 0.040000
v 0.004097 0.003036 0.040000
v 0.004485 0.002985 0.040000
v 0.004097 0.003036 0.062500
v 0.004097 0.003036 0.055000
v 0.004097 0.003036 0.047500
v 0.003735 0.003186 0.062500
v 0.003735 0.003186 0.055000
v 0.003735 0.003186 0.047500
v 0.003424 0.003424 0.062500
v 0.003424 0.003424 0.055000
v 0.003424 0.003424 0.047500
v 0.003186 0.003735 0.062500
v 0.003186 0.003735 0.055000
v 0.003186 0.003735 0.047500
v 0.003036 0.004097 0.062500
v 0.003036 0.004097 0.055000
v 0.003036 0.004097 0.047500
v 0.012910 0.002985 0.040000
v 0.012910 0.002985 0.070000
v 0.032500 -0.032500 0.070000
v -0.032500 -0.032500 0.070000
v -0.032500 -0.032500 0.060000
v 0.032500 -0.032500 0.060000
v 0.032500 0.032500 0.070000
v 0.032500 0.032500 0.060000
v -0.015000 -0.015000 0.060000
v -0.015000 0.015000 0.060000
v -0.015000 0.015000 0.010000
v -0.015000 -0.015000 0.010000
v -0.032500 0.032500 0.070000
v -0.032500 0.032500 0.060000
v 0.015000 -0.015000 0.060000
v 0.015000 0.015000 0.060000
v 0.015000 -0.015000 0.010000
v 0.028250 0.025000 0.000000
v 0.028179 0.025676 0.000000
v 0.027969 0.026322 0.000000
v 0.027629 0.026910 0.000000
v 0.027175 0.027415 0.000000
v 0.026625 0.027815 0.000000
v 0.026004 0.028091 0.000000
v 0.025340 0.028232 0.000000
v 0.024660 0.028232 0.000000
v 0.023996 0.028091 0.000000
v 0.023375 0.027815 0.000000
v 0.022825 0.027415 0.000000
v 0.022371 0.026910 0.000000
v 0.022031 0.026322 0.000000
v 0.021821 0.025676 0.000000
v 0.021750 0.025000 0.000000
v 0.021821 0.024324 0.000000
v 0.022031 0.023678 0.000000
v 0.022371 0.023090 0.000000
v 0.022825 0.022585 0.000000
v 0.023375 0.022185 0.000000
v 0.023996 0.021909 0.000000
v 0.024660 0.021768 0.000000
v 0.025340 0.021768 0.000000
v 0.026004 0.021909 0.000000
v 0.026625 0.022185 0.000000
v 0.027175 0.022585 0.000000
v 0.027629 0.023090 0.000000
v 0.027969 0.023678 0.000000
v 0.028179 0.024324 0.000000
v -0.021750 0.025000 0.000000
v -0.021821 0.025676 0.000000
v -0.022031 0.026322 0.000000
v -0.022371 0.026910 0.000000
v -0.022825 0.027415 0.000000
v -0.023375 0.027815 0.000000
v -0.023996 0.028091 0.000000
v -0.024660 0.028232 0.000000
v -0.025340 0.028232 0.000000
v -0.026004 0.028091 0.000000
v -0.026625 0.027815 0.000000
v -0.027175 0.027415 0.000000
v -0.027629 0.026910 0.000000
v -0.027969 0.026322 0.000000
v -0.028179 0.025676 0.000000
v -0.028250 0.025000 0.000000
v -0.028179 0.024324 0.000000
v -0.027969 0.023678 0.000000
v -0.027629 0.023090 0.000000
v -0.027175 0.022585 0.000000
v -0.026625 0.022185 0.000000
v -0.026004 0.021909 0.000000
v -0.025340 0.021768 0.000000
v -0.024660 0.021768 0.000000
v -0.023996 0.021909 0.000000
v -0.023375 0.022185 0.000000
v -0.022825 0.022585 0.000000
v -0.022371 0.023090 0.000000
v -0.022031 0.023678 0.000000
v -0.021821 0.024324 0.000000
v 0.028250 -0.025000 0.000000
v 0.028179 -0.024324 0.000000
v 0.027969 -0.023678 0.000000
v 0.027629 -0.023090 0.000000
v 0.027175 -0.022585 0.000000
v 0.026625 -0.022185 0.000000
v 0.026004 -0.021909 0.000000
v 0.025340 -0.021768 0.000000
v 0.024660 -0.021768 0.000000
v 0.023996 -0.021909 0.000000
v 0.023375 -0.022185 0.000000
v 0.022825 -0.022585 0.000000
v 0.022371 -0.023090 0.000000
v 0.022031 -0.023678 0.000000
v 0.021821 -0.024324 0.000000
v 0.021750 -0.025000 0.000000
v 0.021821 -0.025676 0.000000
v 0.022031 -0.026322 0.000000
v 0.022371 -0.026910 0.000000
v 0.022825 -0.027415 0.000000
v 0.023375 -0.027815 0.000000
v 0.023996 -0.028091 0.000000
v 0.024660 -0.028232 0.000000
v 0.025340 -0.028232 0.000000
v 0.026004 -0.028091 0.000000
v 0.026625 -0.027815 0.000000
v 0.027175 -0.027415 0.000000
v 0.027629 -0.026910 0.000000
v 0.027969 -0.026322 0.000000
v 0.028179 -0.025676 0.000000
v -0.021750 -0.025000 0.000000
v -0.021821 -0.024324 0.000000
v -0.022031 -0.023678 0.000000
v -0.022371 -0.023090 0.000000
v -0.022825 -0.022585 0.000000
v -0.023375 -0.022185 0.000000
v -0.023996 -0.021909 0.000000
v -0.024660 -0.021768 0.000000
v -0.025340 -0.021768 0.000000
v -0.026004 -0.021909 0.000000
v -0.026625 -0.022185 0.000000
v -0.027175 -0.022585 0.000000
v -0.027629 -0.023090 0.000000
v -0.027969 -0.023678 0.000000
v -0.028179 -0.024324 0.000000
v -0.028250 -0.025000 0.000000
v -0.028179 -0.025676 0.000000
v -0.027969 -0.026322 0.000000
v -0.027629 -0.026910 0.000000
v -0.027175 -0.027415 0.000000
v -0.026625 -0.027815 0.000000
v -0.026004 -0.028091 0.000000
v -0.025340 -0.028232 0.000000
v -0.024660 -0.028232 0.000000
v -0.023996 -0.028091 0.000000
v -0.023375 -0.027815 0.000000
v -0.022825 -0.027415 0.000000
v -0.022371 -0.026910 0.000000
v -0.022031 -0.026322 0.000000
v -0.021821 -0.025676 0.000000
v 0.032500 0.032500 0.000000
v 0.032500 -0.032500 0.000000
v -0.032500 -0.032500 0.000000
v -0.032500 0.032500 0.000000
v 0.032500 0.032500 0.010000
v 0.032500 -0.032500 0.010000
v -0.032500 -0.032500 0.010000
v -0.032500 0.032500 0.010000
v 0.028250 0.025000 0.010000
v 0.028179 0.025676 0.010000
v 0.027969 0.026322 0.010000
v 0.027629 0.026910 0.010000
v 0.027175 0.027415 0.010000
v 0.026625 0.027815 0.010000
v 0.026004 0.028091 0.010000
v 0.025340 0.028232 0.010000
v 0.024660 0.028232 0.010000
v 0.023996 0.028091 0.010000
v 0.023375 0.027815 0.010000
v 0.022825 0.027415 0.010000
v 0.022371 0.026910 0.010000
v 0.022031 0.026322 0.010000
v 0.021821 0.025676 0.010000
v 0.021750 0.025000 0.010000
v 0.021821 0.024324 0.010000
v 0.022031 0.023678 0.010000
v 0.022371 0.023090 0.010000
v 0.022825 0.022585 0.010000
v 0.023375 0.022185 0.010000
v 0.023996 0.021909 0.010000
v 0.024660 0.021768 0.010000
v 0.025340 0.021768 0.010000
v 0.026004 0.021909 0.010000
v 0.026625 0.022185 0.010000
v 0.027175 0.022585 0.010000
v 0.027629 0.023090 0.010000
v 0.027969 0.023678 0.010000
v 0.028179 0.024324 0.010000
v -0.021750 0.025000 0.010000
v -0.021821 0.025676 0.010000
v -0.022031 0.026322 0.010000
v -0.022371 0.026910 0.010000
v -0.022825 0.027415 0.010000
v -0.023375 0.027815 0.010000
v -0.023996 0.028091 0.010000
v -0.024660 0.028232 0.010000
v -0.025340 0.028232 0.010000
v -0.026004 0.028091 0.010000
v -0.026625 0.027815 0.010000
v -0.027175 0.027415 0.010000
v -0.027629 0.026910 0.010000
v -0.027969 0.026322 0.010000
v -0.028179 0.025676 0.010000
v -0.028250 0.025000 0.010000
v -0.028179 0.024324 0.010000
v -0.027969 0.023678 0.010000
v -0.027629 0.023090 0.010000
v -0.027175 0.022585 0.010000
v -0.026625 0.022185 0.010000
v -0.026004 0.021909 0.010000
v -0.025340 0.021768 0.010000
v -0.024660 0.021768 0.010000
v -0.023996 0.021909 0.010000
v -0.023375 0.022185 0.010000
v -0.022825 0.022585 0.010000
v -0.022371 0.023090 0.010000
v -0.022031 0.023678 0.010000
v -0.021821 0.024324 0.010000
v 0.028250 -0.025000 0.010000
v 0.028179 -0.024324 0.010000
v 0.027969 -0.023678 0.010000
v 0.027629 -0.023090 0.010000
v 0.027175 -0.022585 0.010000
v 0.026625 -0.022185 0.010000
v 0.026004 -0.021909 0.010000
v 0.025340 -0.021768 0.010000
v 0.024660 -0.021768 0.010000
v 0.023996 -0.021909 0.010000
v 0.023375 -0.022185 0.010000
v 0.022825 -0.022585 0.010000
v 0.022371 -0.023090 0.010000
v 0.022031 -0.023678 0.010000
v 0.021821 -0.024324 0.010000
v 0.021750 -0.025000 0.010000
v 0.021821 -0.025676 0.010000
v 0.022031 -0.026322 0.010000
v 0.022371 -0.026910 0.010000
v 0.022825 -0.027415 0.010000
v 0.023375 -0.027815 0.010000
v 0.023996 -0.028091 0.010000
v 0.024660 -0.028232 0.010000
v 0.025340 -0.028232 0.010000
v 0.026004 -0.028091 0.010000
v 0.026625 -0.027815 0.010000
v 0.027175 -0.027415 0.010000
v 0.027629 -0.026910 0.010000
v 0.027969 -0.026322 0.010000
v 0.028179 -0.025676 0.010000
v -0.021750 -0.025000 0.010000
v -0.021821 -0.024324 0.010000
v -0.022031 -0.023678 0.010000
v -0.022371 -0.023090 0.010000
v -0.022825 -0.022585 0.010000
v -0.023375 -0.022185 0.010000
v -0.023996 -0.021909 0.010000
v -0.024660 -0.021768 0.010000
v -0.025340 -0.021768 0.010000
v -0.026004 -0.021909 0.010000
v -0.026625 -0.022185 0.010000
v -0.027175 -0.022585 0.010000
v -0.027629 -0.023090 0.010000
v -0.027969 -0.023678 0.010000
v -0.028179 -0.024324 0.010000
v -0.028250 -0.025000 0.010000
v -0.028179 -0.025676 0.010000
v -0.027969 -0.026322 0.010000
v -0.027629 -0.026910 0.010000
v -0.027175 -0.027415 0.010000
v -0.026625 -0.027815 0.010000
v -0.026004 -0.028091 0.010000
v -0.025340 -0.028232 0.010000
v -0.024660 -0.028232 0.010000
v -0.023996 -0.028091 0.010000
v -0.023375 -0.027815 0.010000
v -0.022825 -0.027415 0.010000
v -0.022371 -0.026910 0.010000
v -0.022031 -0.026322 0.010000
v -0.021821 -0.025676 0.010000
v 0.015000 0.015000 0.010000
vt 0.000000 -0.196109 0.000000
vt -0.750000 -0.196109 0.000000
vt -0.000000 -0.235331 0.000000
vt -1.500000 -0.196109 0.000000
vt -3.000000 -0.235331 0.000000
vt -2.250000 -0.196109 0.000000
vt -3.000000 -0.196109 0.000000
vt -3.000000 -0.156887 0.000000
vt -2.250000 -0.156887 0.000000
vt -3.000000 -0.117665 0.000000
vt -2.250000 -0.117665 0.000000
vt -3.000000 -0.078444 0.000000
vt -2.250000 -0.078444 0.000000
vt -3.000000 -0.039222 0.000000
vt -2.250000 -0.039222 0.000000
vt -3.000000 0.000000 0.000000
vt -1.500000 -0.039222 0.000000
vt -0.000000 -0.000000 0.000000
vt -0.750000 -0.039222 0.000000
vt -0.000000 -0.039222 0.000000
vt 0.000000 -0.078444 0.000000
vt -0.750000 -0.078444 0.000000
vt -0.000000 -0.117665 0.000000
vt -0.750000 -0.117665 0.000000
vt -0.000000 -0.156887 0.000000
vt -0.750000 -0.156887 0.000000
vt -1.500000 -0.156887 0.000000
vt -1.500000 -0.117665 0.000000
vt -1.500000 -0.078444 0.000000
vt -0.840959 0.000000 0.000000
vt -0.000000 0.000000 0.000000
vt -0.840959 3.000000 0.000000
vt -0.000000 3.000000 0.000000
vt -1.500000 -0.391169 0.000000
vt 1.500000 -0.391169 0.000000
vt -1.500000 0.451621 0.000000
vt 1.500000 0.451621 0.000000
vt 1.741041 3.000000 0.000000
vt 0.898540 3.000000 0.000000
vt 1.741041 0.000000 0.000000
vt 0.898540 0.000000 0.000000
vt -0.842502 0.000000 0.000000
vt -0.000000 0.000000 0.000000
vt -0.842502 3.000000 0.000000
vt 0.000000 3.000000 0.000000
vt -0.000000 -0.196347 0.000000
vt -0.750000 -0.196347 0.000000
vt 0.000000 -0.235616 0.000000
vt -1.500000 -0.196347 0.000000
vt -3.000000 -0.235616 0.000000
vt -2.250000 -0.196347 0.000000
vt -3.000000 -0.196347 0.000000
vt -3.000000 -0.157077 0.000000
vt -2.250000 -0.157077 0.000000
vt -3.000000 -0.117808 0.000000
vt -2.250000 -0.117808 0.000000
vt -3.000000 -0.078539 0.000000
vt -2.250000 -0.078539 0.000000
vt -3.000000 -0.039269 0.000000
vt -2.250000 -0.039269 0.000000
vt -3.000000 0.000000 0.000000
vt -1.500000 -0.039269 0.000000
vt -0.000000 0.000000 0.000000
vt -0.750000 -0.039269 0.000000
vt 0.000000 -0.039269 0.000000
vt -0.000000 -0.078539 0.000000
vt -0.750000 -0.078539 0.000000
vt 0.000000 -0.117808 0.000000
vt -0.750000 -0.117808 0.000000
vt -0.000000 -0.157077 0.000000
vt -0.750000 -0.157077 0.000000
vt -1.500000 -0.157077 0.000000
vt -1.500000 -0.117808 0.000000
vt -1.500000 -0.078539 0.000000
vt -0.596903 0.000000 0.000000
vt -0.000000 0.000000 0.000000
vt -0.596903 3.000000 0.000000
vt 0.000000 3.000000 0.000000
vt -1.500000 -1.291000 0.000000
vt 1.500000 -1.291000 0.000000
vt -1.500000 -0.448498 0.000000
vt 1.500000 -0.448498 0.000000
vt -0.000000 -0.196346 0.000000
vt -0.750000 -0.196346 0.000000
vt 0.000000 -0.235615 0.000000
vt -1.500000 -0.196346 0.000000
vt -3.000000 -0.235615 0.000000
vt -2.250000 -0.196346 0.000000
vt -3.000000 -0.196346 0.000000
vt -3.000000 -0.157077 0.000000
vt -2.250000 -0.157077 0.000000
vt -3.000000 -0.117808 0.000000
vt -2.250000 -0.117808 0.000000
vt -3.000000 -0.078538 0.000000
vt -2.250000 -0.078538 0.000000
vt -3.000000 -0.039269 0.000000
vt -2.250000 -0.039269 0.000000
vt -3.000000 -0.000000 0.000000
vt -1.500000 -0.039269 0.000000
vt -0.000000 0.000000 0.000000
vt -0.750000 -0.039269 0.000000
vt -0.000000 -0.039269 0.000000
vt -0.000000 -0.078538 0.000000
vt -0.750000 -0.078538 0.000000
vt -0.000000 -0.117808 0.000000
vt -0.750000 -0.117808 0.000000
vt 0.000000 -0.157077 0.000000
vt -0.750000 -0.157077 0.000000
vt -1.500000 -0.157077 0.000000
vt -1.500000 -0.117808 0.000000
vt -1.500000 -0.078538 0.000000
vt -0.842502 0.000000 0.000000
vt -0.000000 0.000000 0.000000
vt -0.842502 3.000000 0.000000
vt -0.000000 3.000000 0.000000
vt -0.000000 3.000000 0.000000
vt -0.597000 3.000000 0.000000
vt -0.000000 0.000000 0.000000
vt -0.597000 0.000000 0.000000
vt 0.000000 -0.196347 0.000000
vt -0.750000 -0.196347 0.000000
vt 0.000000 -0.235616 0.000000
vt -1.500000 -0.196347 0.000000
vt -3.000000 -0.235616 0.000000
vt -2.250000 -0.196347 0.000000
vt -3.000000 -0.196347 0.000000
vt -3.000000 -0.157077 0.000000
vt -2.250000 -0.157077 0.000000
vt -3.000000 -0.117808 0.000000
vt -2.250000 -0.117808 0.000000
vt -3.000000 -0.078539 0.000000
vt -2.250000 -0.078539 0.000000
vt -3.000000 -0.039269 0.000000
vt -2.250000 -0.039269 0.000000
vt -3.000000 -0.000000 0.000000
vt -1.500000 -0.039269 0.000000
vt 0.000000 -0.000000 0.000000
vt -0.750000 -0.039269 0.000000
vt 0.000000 -0.039269 0.000000
vt 0.000000 -0.078539 0.000000
vt -0.750000 -0.078539 0.000000
vt 0.000000 -0.117808 0.000000
vt -0.750000 -0.117808 0.000000
vt 0.000000 -0.157077 0.000000
vt -0.750000 -0.157077 0.000000
vt -1.500000 -0.157077 0.000000
vt -1.500000 -0.117808 0.000000
vt -1.500000 -0.078539 0.000000
vt 1.500000 0.391750 0.000000
vt -1.500000 0.391750 0.000000
vt 1.500000 -0.450752 0.000000
vt -1.500000 -0.450752 0.000000
vt -0.842501 0.000000 0.000000
vt -0.000000 0.000000 0.000000
vt -0.842501 3.000000 0.000000
vt -0.000000 3.000000 0.000000
vt -0.597000 0.000000 0.000000
vt -0.000000 0.000000 0.000000
vt -0.597000 3.000000 0.000000
vt -0.000000 3.000000 0.000000
vt -0.298403 -1.291000 0.000000
vt 0.298500 -0.448498 0.000000
vt -0.300042 -0.448212 0.000000
vt 0.303612 -0.409676 0.000000
vt -0.305215 -0.409445 0.000000
vt 0.318597 -0.373499 0.000000
vt -0.320234 -0.373334 0.000000
vt 0.342434 -0.342434 0.000000
vt -0.344077 -0.342332 0.000000
vt -0.342434 0.342434 0.000000
vt -0.373500 0.318596 0.000000
vt 0.298500 -1.291000 0.000000
vt 0.342434 0.342434 0.000000
vt 0.373500 -0.318596 0.000000
vt 0.373500 0.318596 0.000000
vt 0.409676 -0.303611 0.000000
vt 0.409676 0.303611 0.000000
vt 0.448499 -0.298500 0.000000
vt 0.448499 0.298500 0.000000
vt 1.291000 -0.298500 0.000000
vt 1.291000 0.298500 0.000000
vt -0.318597 0.373499 0.000000
vt 0.318597 0.373499 0.000000
vt -0.303612 0.409676 0.000000
vt 0.303612 0.409676 0.000000
vt -0.298500 0.448498 0.000000
vt 0.298500 0.448498 0.000000
vt 0.298500 1.291000 0.000000
vt -0.298500 1.291000 0.000000
vt -0.375124 -0.318548 0.000000
vt -0.409676 0.303611 0.000000
vt -0.411265 -0.303599 0.000000
vt -0.448498 0.298500 0.000000
vt -0.450041 -0.298500 0.000000
vt -1.291000 0.298500 0.000000
vt -1.291000 -0.298500 0.000000
vt -0.597000 -0.000000 0.000000
vt 0.000000 0.000000 0.000000
vt -0.597000 3.000000 0.000000
vt -0.000000 3.000000 0.000000
vt 0.000000 0.000000 0.000000
vt 6.500000 0.000000 0.000000
vt 0.000000 1.000000 0.000000
vt 6.500000 1.000000 0.000000
vt -0.000000 0.000000 0.000000
vt 6.500000 -0.000000 0.000000
vt 0.000000 1.000000 0.000000
vt 6.500000 1.000000 0.000000
vt -0.000000 -2.000000 0.000000
vt 3.000000 -2.000000 0.000000
vt 0.000000 3.000000 0.000000
vt 3.000000 3.000000 0.000000
vt 0.000000 0.000000 0.000000
vt 6.500000 0.000000 0.000000
vt 0.000000 1.000000 0.000000
vt 6.500000 1.000000 0.000000
vt -3.250000 -3.250000 0.000000
vt -1.500000 1.500000 0.000000
vt -3.250000 3.250000 0.000000
vt 1.500000 1.500000 0.000000
vt 3.250000 3.250000 0.000000
vt 3.250000 -3.250000 0.000000
vt 1.500000 -1.500000 0.000000
vt -1.500000 -1.500000 0.000000
vt 0.000000 0.000000 0.000000
vt 6.500000 0.000000 0.000000
vt 0.000000 1.000000 0.000000
vt 6.500000 1.000000 0.000000
vt 3.000000 3.000000 0.000000
vt 0.000000 3.000000 0.000000
vt 3.000000 -2.000000 0.000000
vt 0.000000 -2.000000 0.000000
vt -2.817898 2.432429 0.000000
vt -2.825000 2.500000 0.000000
vt -3.250000 3.250000 0.000000
vt -2.817898 2.567571 0.000000
vt -2.796902 2.632189 0.000000
vt -2.762931 2.691030 0.000000
vt -2.717467 2.741522 0.000000
vt -2.662500 2.781458 0.000000
vt -2.600431 2.809093 0.000000
vt -2.533972 2.823220 0.000000
vt -2.466028 2.823220 0.000000
vt -2.399569 2.809093 0.000000
vt 2.399569 2.809093 0.000000
vt 3.250000 3.250000 0.000000
vt 2.466028 2.823220 0.000000
vt 2.533972 2.823220 0.000000
vt 2.337500 2.781458 0.000000
vt -2.337500 2.781458 0.000000
vt 2.282533 2.741522 0.000000
vt -2.282533 2.741522 0.000000
vt 2.237069 2.691030 0.000000
vt -2.237069 2.691030 0.000000
vt 2.203098 2.632189 0.000000
vt -2.203098 2.632189 0.000000
vt 2.182102 2.567571 0.000000
vt -2.182102 2.567571 0.000000
vt 2.175000 2.500000 0.000000
vt -2.175000 2.500000 0.000000
vt 2.182102 2.432429 0.000000
vt -2.182102 2.432429 0.000000
vt 2.203098 2.367811 0.000000
vt -2.203098 2.367811 0.000000
vt 2.237069 2.308970 0.000000
vt -2.237069 2.308970 0.000000
vt 2.282533 2.258478 0.000000
vt -2.282533 2.258478 0.000000
vt 2.282533 -2.258478 0.000000
vt -2.282533 -2.258478 0.000000
vt 2.237069 -2.308970 0.000000
vt -2.237069 -2.308970 0.000000
vt 2.203098 -2.367811 0.000000
vt -2.203098 -2.367811 0.000000
vt 2.182102 -2.432429 0.000000
vt -2.182102 -2.432429 0.000000
vt 2.175000 -2.500000 0.000000
vt -2.175000 -2.500000 0.000000
vt 2.182102 -2.567571 0.000000
vt -2.182102 -2.567571 0.000000
vt 2.203098 -2.632189 0.000000
vt -2.203098 -2.632189 0.000000
vt 2.237069 -2.691030 0.000000
vt -2.237069 -2.691030 0.000000
vt 2.282533 -2.741522 0.000000
vt -2.282533 -2.741522 0.000000
vt 2.337500 -2.781458 0.000000
vt -2.337500 -2.781458 0.000000
vt 2.399569 -2.809093 0.000000
vt -2.399569 -2.809093 0.000000
vt 3.250000 -3.250000 0.000000
vt -3.250000 -3.250000 0.000000
vt -2.466028 -2.823220 0.000000
vt -2.533972 -2.823220 0.000000
vt -2.337500 2.218542 0.000000
vt -2.337500 -2.218542 0.000000
vt -2.399569 2.190907 0.000000
vt -2.399569 -2.190907 0.000000
vt -2.466028 2.176780 0.000000
vt -2.466028 -2.176780 0.000000
vt -2.533972 2.176780 0.000000
vt -2.533972 -2.176780 0.000000
vt -2.600431 -2.190907 0.000000
vt -2.600431 2.190907 0.000000
vt -2.662500 -2.218542 0.000000
vt -2.662500 2.218542 0.000000
vt -2.717467 -2.258478 0.000000
vt -2.717467 2.258478 0.000000
vt -2.762931 -2.308970 0.000000
vt -2.762931 2.308970 0.000000
vt -2.796902 -2.367811 0.000000
vt -2.796902 2.367811 0.000000
vt 2.600431 2.809093 0.000000
vt 2.662500 2.781458 0.000000
vt 2.717467 2.741522 0.000000
vt 2.762931 2.691030 0.000000
vt 2.796902 2.632189 0.000000
vt 2.817898 2.567571 0.000000
vt 2.825000 2.500000 0.000000
vt 2.817898 2.432429 0.000000
vt 2.796902 2.367811 0.000000
vt 2.762931 2.308970 0.000000
vt 2.796902 -2.367811 0.000000
vt 2.762931 -2.308970 0.000000
vt 2.717467 2.258478 0.000000
vt 2.717467 -2.258478 0.000000
vt 2.662500 2.218542 0.000000
vt 2.662500 -2.218542 0.000000
vt 2.600431 2.190907 0.000000
vt 2.600431 -2.190907 0.000000
vt 2.533972 2.176780 0.000000
vt 2.533972 -2.176780 0.000000
vt 2.466028 2.176780 0.000000
vt 2.466028 -2.176780 0.000000
vt 2.399569 -2.190907 0.000000
vt 2.399569 2.190907 0.000000
vt 2.337500 -2.218542 0.000000
vt 2.337500 2.218542 0.000000
vt -2.817898 -2.567571 0.000000
vt -2.825000 -2.500000 0.000000
vt -2.817898 -2.432429 0.000000
vt -2.600431 -2.809093 0.000000
vt -2.662500 -2.781458 0.000000
vt -2.717467 -2.741522 0.000000
vt -2.762931 -2.691030 0.000000
vt -2.796902 -2.632189 0.000000
vt 2.817898 -2.432429 0.000000
vt 2.825000 -2.500000 0.000000
vt 2.817898 -2.567571 0.000000
vt 2.796902 -2.632189 0.000000
vt 2.762931 -2.691030 0.000000
vt 2.717467 -2.741522 0.000000
vt 2.662500 -2.781458 0.000000
vt 2.600431 -2.809093 0.000000
vt 2.533972 -2.823220 0.000000
vt 2.466028 -2.823220 0.000000
vt 0.000000 0.000000 0.000000
vt 6.500000 0.000000 0.000000
vt -0.000000 1.000000 0.000000
vt 6.500000 1.000000 0.000000
vt 0.000000 0.000000 0.000000
vt 6.500000 0.000000 0.000000
vt 0.000000 1.000000 0.000000
vt 6.500000 1.000000 0.000000
vt 0.000000 0.000000 0.000000
vt 6.500000 0.000000 0.000000
vt 0.000000 1.000000 0.000000
vt 6.500000 1.000000 0.000000
vt 0.000000 0.000000 0.000000
vt 6.500000 0.000000 0.000000
vt 0.000000 1.000000 0.000000
vt 6.500000 1.000000 0.000000
vt 1.000000 -0.952950 0.000000
vt 0.000000 -0.952950 0.000000
vt 1.000000 -1.021018 0.000000
vt 0.000000 -1.021018 0.000000
vt 1.000000 1.021018 0.000000
vt 0.000000 1.021018 0.000000
vt 1.000000 0.952950 0.000000
vt -0.000000 0.952950 0.000000
vt 1.000000 0.884882 0.000000
vt -0.000000 0.884882 0.000000
vt 1.000000 0.816814 0.000000
vt -0.000000 0.816814 0.000000
vt 1.000000 0.748746 0.000000
vt -0.000000 0.748746 0.000000
vt 1.000000 0.680678 0.000000
vt -0.000000 0.680678 0.000000
vt 1.000000 0.612611 0.000000
vt -0.000000 0.612611 0.000000
vt 1.000000 0.544543 0.000000
vt 0.000000 0.544543 0.000000
vt 1.000000 0.476475 0.000000
vt 0.000000 0.476475 0.000000
vt 1.000000 0.408407 0.000000
vt -0.000000 0.408407 0.000000
vt 1.000000 0.340339 0.000000
vt -0.000000 0.340339 0.000000
vt 1.000000 0.272271 0.000000
vt -0.000000 0.272271 0.000000
vt 1.000000 0.204204 0.000000
vt -0.000000 0.204204 0.000000
vt 1.000000 0.136136 0.000000
vt -0.000000 0.136136 0.000000
vt 1.000000 0.068068 0.000000
vt 0.000000 0.068068 0.000000
vt 1.000000 0.000000 0.000000
vt 0.000000 0.000000 0.000000
vt 1.000000 -0.068068 0.000000
vt -0.000000 -0.068068 0.000000
vt 1.000000 -0.136136 0.000000
vt -0.000000 -0.136136 0.000000
vt 1.000000 -0.204204 0.000000
vt -0.000000 -0.204204 0.000000
vt 1.000000 -0.272271 0.000000
vt -0.000000 -0.272271 0.000000
vt 1.000000 -0.340339 0.000000
vt -0.000000 -0.340339 0.000000
vt 1.000000 -0.408407 0.000000
vt -0.000000 -0.408407 0.000000
vt 1.000000 -0.476475 0.000000
vt -0.000000 -0.476475 0.000000
vt 1.000000 -0.544543 0.000000
vt 0.000000 -0.544543 0.000000
vt 1.000000 -0.612611 0.000000
vt -0.000000 -0.612611 0.000000
vt 1.000000 -0.680678 0.000000
vt -0.000000 -0.680678 0.000000
vt 1.000000 -0.748746 0.000000
vt -0.000000 -0.748746 0.000000
vt 1.000000 -0.816814 0.000000
vt -0.000000 -0.816814 0.000000
vt 1.000000 -0.884882 0.000000
vt 0.000000 -0.884882 0.000000
vt 1.000000 -0.952950 0.000000
vt -0.000000 -0.952950 0.000000
vt 1.000000 -1.021018 0.000000
vt 0.000000 -1.021018 0.000000
vt 1.000000 1.021018 0.000000
vt 0.000000 1.021018 0.000000
vt 1.000000 0.952950 0.000000
vt -0.000000 0.952950 0.000000
vt 1.000000 0.884882 0.000000
vt -0.000000 0.884882 0.000000
vt 1.000000 0.816814 0.000000
vt -0.000000 0.816814 0.000000
vt 1.000000 0.748746 0.000000
vt -0.000000 0.748746 0.000000
vt 1.000000 0.680678 0.000000
vt -0.000000 0.680678 0.000000
vt 1.000000 0.612611 0.000000
vt -0.000000 0.612611 0.000000
vt 1.000000 0.544543 0.000000
vt 0.000000 0.544543 0.000000
vt 1.000000 0.476475 0.000000
vt 0.000000 0.476475 0.000000
vt 1.000000 0.408407 0.000000
vt -0.000000 0.408407 0.000000
vt 1.000000 0.340339 0.000000
vt -0.000000 0.340339 0.000000
vt 1.000000 0.272271 0.000000
vt -0.000000 0.272271 0.000000
vt 1.000000 0.204204 0.000000
vt -0.000000 0.204204 0.000000
vt 1.000000 0.136136 0.000000
vt -0.000000 0.136136 0.000000
vt 1.000000 0.068068 0.000000
vt -0.000000 0.068068 0.000000
vt 1.000000 0.000000 0.000000
vt 0.000000 0.000000 0.000000
vt 1.000000 -0.068068 0.000000
vt -0.000000 -0.068068 0.000000
vt 1.000000 -0.136136 0.000000
vt -0.000000 -0.136136 0.000000
vt 1.000000 -0.204204 0.000000
vt -0.000000 -0.204204 0.000000
vt 1.000000 -0.272271 0.000000
vt -0.000000 -0.272271 0.000000
vt 1.000000 -0.340339 0.000000
vt -0.000000 -0.340339 0.000000
vt 1.000000 -0.408407 0.000000
vt -0.000000 -0.408407 0.000000
vt 1.000000 -0.476475 0.000000
vt -0.000000 -0.476475 0.000000
vt 1.000000 -0.544543 0.000000
vt 0.000000 -0.544543 0.000000
vt 1.000000 -0.612611 0.000000
vt -0.000000 -0.612611 0.000000
vt 1.000000 -0.680678 0.000000
vt -0.000000 -0.680678 0.000000
vt 1.000000 -0.748746 0.000000
vt -0.000000 -0.748746 0.000000
vt 1.000000 -0.816814 0.000000
vt -0.000000 -0.816814 0.000000
vt 1.000000 -0.884882 0.000000
vt -0.000000 -0.884882 0.000000
vt 1.000000 -0.952950 0.000000
vt -0.000000 -0.952950 0.000000
vt 1.000000 -1.021018 0.000000
vt 0.000000 -1.021018 0.000000
vt 1.000000 1.021018 0.000000
vt 0.000000 1.021018 0.000000
vt 1.000000 0.952950 0.000000
vt -0.000000 0.952950 0.000000
vt 1.000000 0.884882 0.000000
vt -0.000000 0.884882 0.000000
vt 1.000000 0.816814 0.000000
vt -0.000000 0.816814 0.000000
vt 1.000000 0.748746 0.000000
vt -0.000000 0.748746 0.000000
vt 1.000000 0.680678 0.000000
vt -0.000000 0.680678 0.000000
vt 1.000000 0.612611 0.000000
vt -0.000000 0.612611 0.000000
vt 1.000000 0.544543 0.000000
vt 0.000000 0.544543 0.000000
vt 1.000000 0.476475 0.000000
vt 0.000000 0.476475 0.000000
vt 1.000000 0.408407 0.000000
vt -0.000000 0.408407 0.000000
vt 1.000000 0.340339 0.000000
vt -0.000000 0.340339 0.000000
vt 1.000000 0.272271 0.000000
vt -0.000000 0.272271 0.000000
vt 1.000000 0.204204 0.000000
vt -0.000000 0.204204 0.000000
vt 1.000000 0.136136 0.000000
vt -0.000000 0.136136 0.000000
vt 1.000000 0.068068 0.000000
vt -0.000000 0.068068 0.000000
vt 1.000000 0.000000 0.000000
vt 0.000000 0.000000 0.000000
vt 1.000000 -0.068068 0.000000
vt -0.000000 -0.068068 0.000000
vt 1.000000 -0.136136 0.000000
vt -0.000000 -0.136136 0.000000
vt 1.000000 -0.204204 0.000000
vt -0.000000 -0.204204 0.000000
vt 1.000000 -0.272271 0.000000
vt -0.000000 -0.272271 0.000000
vt 1.000000 -0.340339 0.000000
vt -0.000000 -0.340339 0.000000
vt 1.000000 -0.408407 0.000000
vt -0.000000 -0.408407 0.000000
vt 1.000000 -0.476475 0.000000
vt -0.000000 -0.476475 0.000000
vt 1.000000 -0.544543 0.000000
vt 0.000000 -0.544543 0.000000
vt 1.000000 -0.612611 0.000000
vt -0.000000 -0.612611 0.000000
vt 1.000000 -0.680678 0.000000
vt -0.000000 -0.680678 0.000000
vt 1.000000 -0.748746 0.000000
vt -0.000000 -0.748746 0.000000
vt 1.000000 -0.816814 0.000000
vt -0.000000 -0.816814 0.000000
vt 1.000000 -0.884882 0.000000
vt -0.000000 -0.884882 0.000000
vt 1.000000 -0.952950 0.000000
vt -0.000000 -0.952950 0.000000
vt 1.000000 -1.021018 0.000000
vt 0.000000 -1.021018 0.000000
vt 1.000000 1.021018 0.000000
vt 0.000000 1.021018 0.000000
vt 1.000000 0.952950 0.000000
vt -0.000000 0.952950 0.000000
vt 1.000000 0.884882 0.000000
vt -0.000000 0.884882 0.000000
vt 1.000000 0.816814 0.000000
vt -0.000000 0.816814 0.000000
vt 1.000000 0.748746 0.000000
vt -0.000000 0.748746 0.000000
vt 1.000000 0.680678 0.000000
vt -0.000000 0.680678 0.000000
vt 1.000000 0.612611 0.000000
vt -0.000000 0.612611 0.000000
vt 1.000000 0.544543 0.000000
vt 0.000000 0.544543 0.000000
vt 1.000000 0.476475 0.000000
vt 0.000000 0.476475 0.000000
vt 1.000000 0.408407 0.000000
vt -0.000000 0.408407 0.000000
vt 1.000000 0.340339 0.000000
vt -0.000000 0.340339 0.000000
vt 1.000000 0.272271 0.000000
vt -0.000000 0.272271 0.000000
vt 1.000000 0.204204 0.000000
vt -0.000000 0.204204 0.000000
vt 1.000000 0.136136 0.000000
vt -0.000000 0.136136 0.000000
vt 1.000000 0.068068 0.000000
vt -0.000000 0.068068 0.000000
vt 1.000000 0.000000 0.000000
vt 0.000000 0.000000 0.000000
vt 1.000000 -0.068068 0.000000
vt -0.000000 -0.068068 0.000000
vt 1.000000 -0.136136 0.000000
vt -0.000000 -0.136136 0.000000
vt 1.000000 -0.204204 0.000000
vt -0.000000 -0.204204 0.000000
vt 1.000000 -0.272271 0.000000
vt -0.000000 -0.272271 0.000000
vt 1.000000 -0.340339 0.000000
vt -0.000000 -0.340339 0.000000
vt 1.000000 -0.408407 0.000000
vt -0.000000 -0.408407 0.000000
vt 1.000000 -0.476475 0.000000
vt -0.000000 -0.476475 0.000000
vt 1.000000 -0.544543 0.000000
vt 0.000000 -0.544543 0.000000
vt 1.000000 -0.612611 0.000000
vt -0.000000 -0.612611 0.000000
vt 1.000000 -0.680678 0.000000
vt -0.000000 -0.680678 0.000000
vt 1.000000 -0.748746 0.000000
vt -0.000000 -0.748746 0.000000
vt 1.000000 -0.816814 0.000000
vt -0.000000 -0.816814 0.000000
vt 1.000000 -0.884882 0.000000
vt -0.000000 -0.884882 0.000000
vt 1.500000 -1.500000 0.000000
vt 2.600431 -2.190907 0.000000
vt 1.500000 1.500000 0.000000
vt 2.600431 2.190907 0.000000
vt 2.533972 2.176780 0.000000
vt -1.500000 -1.500000 0.000000
vt 2.182102 -2.567571 0.000000
vt 2.175000 -2.500000 0.000000
vt 2.182102 -2.432429 0.000000
vt -1.500000 1.500000 0.000000
vt -2.600431 -2.190907 0.000000
vt -2.533972 -2.176780 0.000000
vt -2.466028 -2.176780 0.000000
vt -2.182102 2.567571 0.000000
vt -2.175000 2.500000 0.000000
vt -2.182102 2.432429 0.000000
vt 2.817898 2.567571 0.000000
vt 2.825000 2.500000 0.000000
vt 3.250000 3.250000 0.000000
vt 2.817898 2.432429 0.000000
vt 2.796902 2.367811 0.000000
vt 2.762931 2.308970 0.000000
vt 2.796902 -2.367811 0.000000
vt 3.250000 -3.250000 0.000000
vt 2.762931 -2.308970 0.000000
vt 2.717467 2.258478 0.000000
vt 2.717467 -2.258478 0.000000
vt 2.662500 2.218542 0.000000
vt 2.662500 -2.218542 0.000000
vt 2.466028 2.176780 0.000000
vt 2.399569 2.190907 0.000000
vt 2.337500 2.218542 0.000000
vt 2.282533 2.258478 0.000000
vt 2.237069 2.308970 0.000000
vt 2.203098 2.367811 0.000000
vt 2.182102 2.432429 0.000000
vt 2.175000 2.500000 0.000000
vt 2.182102 2.567571 0.000000
vt 2.203098 2.632189 0.000000
vt -2.203098 2.632189 0.000000
vt -2.237069 2.691030 0.000000
vt 2.237069 2.691030 0.000000
vt -2.282533 2.741522 0.000000
vt 2.282533 2.741522 0.000000
vt -2.337500 2.781458 0.000000
vt 2.337500 2.781458 0.000000
vt -2.399569 2.809093 0.000000
vt 2.399569 2.809093 0.000000
vt -3.250000 3.250000 0.000000
vt 2.466028 2.823220 0.000000
vt 2.533972 2.823220 0.000000
vt 2.600431 2.809093 0.000000
vt 2.662500 2.781458 0.000000
vt 2.717467 2.741522 0.000000
vt 2.762931 2.691030 0.000000
vt 2.796902 2.632189 0.000000
vt -2.203098 2.367811 0.000000
vt -2.237069 2.308970 0.000000
vt -2.282533 2.258478 0.000000
vt -2.337500 2.218542 0.000000
vt -2.399569 2.190907 0.000000
vt -2.466028 2.176780 0.000000
vt -2.533972 2.176780 0.000000
vt -2.600431 2.190907 0.000000
vt -2.662500 -2.218542 0.000000
vt -2.662500 2.218542 0.000000
vt -2.717467 -2.258478 0.000000
vt -2.717467 2.258478 0.000000
vt -2.762931 -2.308970 0.000000
vt -2.762931 2.308970 0.000000
vt -2.796902 -2.367811 0.000000
vt -2.796902 2.367811 0.000000
vt -3.250000 -3.250000 0.000000
vt -2.817898 2.432429 0.000000
vt -2.825000 2.500000 0.000000
vt -2.817898 2.567571 0.000000
vt -2.796902 2.632189 0.000000
vt -2.762931 2.691030 0.000000
vt -2.717467 2.741522 0.000000
vt -2.662500 2.781458 0.000000
vt -2.600431 2.809093 0.000000
vt -2.533972 2.823220 0.000000
vt -2.466028 2.823220 0.000000
vt 2.817898 -2.432429 0.000000
vt 2.825000 -2.500000 0.000000
vt 2.817898 -2.567571 0.000000
vt 2.796902 -2.632189 0.000000
vt 2.762931 -2.691030 0.000000
vt 2.717467 -2.741522 0.000000
vt 2.662500 -2.781458 0.000000
vt 2.600431 -2.809093 0.000000
vt 2.533972 -2.823220 0.000000
vt 2.466028 -2.823220 0.000000
vt 2.399569 -2.809093 0.000000
vt -2.399569 -2.809093 0.000000
vt -2.466028 -2.823220 0.000000
vt -2.533972 -2.823220 0.000000
vt -2.337500 -2.781458 0.000000
vt 2.337500 -2.781458 0.000000
vt -2.282533 -2.741522 0.000000
vt 2.282533 -2.741522 0.000000
vt -2.237069 -2.691030 0.000000
vt 2.237069 -2.691030 0.000000
vt -2.203098 -2.632189 0.000000
vt 2.203098 -2.632189 0.000000
vt -2.182102 -2.567571 0.000000
vt 2.203098 -2.367811 0.000000
vt 2.237069 -2.308970 0.000000
vt 2.282533 -2.258478 0.000000
vt 2.337500 -2.218542 0.000000
vt 2.399569 -2.190907 0.000000
vt 2.466028 -2.176780 0.000000
vt 2.533972 -2.176780 0.000000
vt -2.182102 -2.432429 0.000000
vt -2.175000 -2.500000 0.000000
vt -2.600431 -2.809093 0.000000
vt -2.662500 -2.781458 0.000000
vt -2.717467 -2.741522 0.000000
vt -2.762931 -2.691030 0.000000
vt -2.796902 -2.632189 0.000000
vt -2.817898 -2.567571 0.000000
vt -2.825000 -2.500000 0.000000
vt -2.817898 -2.432429 0.000000
vt -2.399569 -2.190907 0.000000
vt -2.337500 -2.218542 0.000000
vt -2.282533 -2.258478 0.000000
vt -2.237069 -2.308970 0.000000
vt -2.203098 -2.367811 0.000000
vt -0.300042 -0.448212 0.000000
vt -1.291000 -0.298500 0.000000
vt -0.298403 -1.291000 0.000000
vt -3.250000 -3.250000 0.000000
vt 3.250000 -3.250000 0.000000
vt -0.305215 -0.409445 0.000000
vt -0.411265 -0.303599 0.000000
vt -0.450041 -0.298500 0.000000
vt -0.320234 -0.373334 0.000000
vt -0.344077 -0.342332 0.000000
vt -0.375124 -0.318548 0.000000
vt -1.291000 0.298500 0.000000
vt -3.250000 3.250000 0.000000
vt -0.298500 1.291000 0.000000
vt 0.298500 1.291000 0.000000
vt -0.448498 0.298500 0.000000
vt -0.298500 0.448498 0.000000
vt -0.409676 0.303611 0.000000
vt -0.373500 0.318596 0.000000
vt -0.342434 0.342434 0.000000
vt -0.318597 0.373499 0.000000
vt -0.303612 0.409676 0.000000
vt 0.298500 0.448498 0.000000
vt 0.448499 0.298500 0.000000
vt 1.291000 0.298500 0.000000
vt 3.250000 3.250000 0.000000
vt 1.291000 -0.298500 0.000000
vt 0.298500 -1.291000 0.000000
vt 0.448499 -0.298500 0.000000
vt 0.298500 -0.448498 0.000000
vt 0.303612 -0.409676 0.000000
vt 0.318597 -0.373499 0.000000
vt 0.342434 -0.342434 0.000000
vt 0.373500 -0.318596 0.000000
vt 0.409676 -0.303611 0.000000
vt 0.303612 0.409676 0.000000
vt 0.318597 0.373499 0.000000
vt 0.342434 0.342434 0.000000
vt 0.373500 0.318596 0.000000
vt 0.409676 0.303611 0.000000
vt 0.000000 -2.000000 0.000000
vt 3.000000 -2.000000 0.000000
vt 0.000000 3.000000 0.000000
vt 3.000000 3.000000 0.000000
vt -0.000000 -2.000000 0.000000
vt 3.000000 -2.000000 0.000000
vt 0.000000 3.000000 0.000000
vt 3.000000 3.000000 0.000000
vn 25.851203 96.600804 0.000000
vn 25.851203 96.600804 0.000000
vn 0.000283 100.000000 0.000000
vn 25.851203 96.600804 0.000000
vn 0.000283 100.000000 0.000000
vn 25.851203 96.600804 0.000000
vn 25.851203 96.600804 0.000000
vn 49.944696 86.634447 0.000000
vn 49.944696 86.634447 0.000000
vn 70.642825 70.778467 0.000000
vn 70.642825 70.778467 0.000000
vn 86.538480 50.110792 0.000000
vn 86.538480 50.110792 0.000000
vn 96.551036 26.036462 0.000000
vn 96.551036 26.036462 0.000000
vn 99.999815 0.192109 0.000000
vn 96.551036 26.036462 0.000000
vn 99.999815 0.192109 0.000000
vn 96.551036 26.036462 0.000000
vn 96.551036 26.036462 0.000000
vn 86.538480 50.110792 0.000000
vn 86.538480 50.110792 0.000000
vn 70.642825 70.778467 0.000000
vn 70.642825 70.778467 0.000000
vn 49.944696 86.634447 0.000000
vn 49.944696 86.634447 0.000000
vn 49.944696 86.634447 0.000000
vn 70.642825 70.778467 0.000000
vn 86.538480 50.110792 0.000000
vn 0.000000 100.000000 0.000000
vn 0.000000 100.000000 0.000000
vn 0.000000 100.000000 0.000000
vn 0.000000 100.000000 0.000000
vn 99.999811 0.194456 0.000000
vn 99.999811 0.194456 0.000000
vn 99.999811 0.194456 0.000000
vn 99.999811 0.194456 0.000000
vn 0.000000 100.000000 0.000000
vn 0.000000 100.000000 0.000000
vn 0.000000 100.000000 0.000000
vn 0.000000 100.000000 0.000000
vn -100.000000 -0.000000 0.000000
vn -100.000000 -0.000000 0.000000
vn -100.000000 -0.000000 0.000000
vn -100.000000 -0.000000 0.000000
vn -96.592301 25.882956 -0.000000
vn -96.592301 25.882956 -0.000000
vn -100.000000 0.001484 -0.000000
vn -96.592301 25.882956 -0.000000
vn -100.000000 0.001484 -0.000000
vn -96.592301 25.882956 -0.000000
vn -96.592301 25.882956 -0.000000
vn -86.602194 50.000600 -0.000000
vn -86.602194 50.000600 -0.000000
vn -70.710468 70.710889 -0.000000
vn -70.710468 70.710889 -0.000000
vn -50.000085 86.602491 -0.000000
vn -50.000085 86.602491 -0.000000
vn -25.882381 96.592455 -0.000000
vn -25.882381 96.592455 -0.000000
vn -0.000889 100.000000 -0.000000
vn -25.882381 96.592455 -0.000000
vn -0.000889 100.000000 -0.000000
vn -25.882381 96.592455 -0.000000
vn -25.882381 96.592455 -0.000000
vn -50.000085 86.602491 -0.000000
vn -50.000085 86.602491 -0.000000
vn -70.710468 70.710889 -0.000000
vn -70.710468 70.710889 -0.000000
vn -86.602194 50.000600 -0.000000
vn -86.602194 50.000600 -0.000000
vn -86.602194 50.000600 -0.000000
vn -70.710468 70.710889 -0.000000
vn -50.000085 86.602491 -0.000000
vn 0.000000 100.000000 0.000000
vn 0.000000 100.000000 0.000000
vn 0.000000 100.000000 0.000000
vn 0.000000 100.000000 0.000000
vn -0.000000 -100.000000 0.000000
vn -0.000000 -100.000000 0.000000
vn -0.000000 -100.000000 0.000000
vn -0.000000 -100.000000 0.000000
vn 96.592321 -25.882879 0.000000
vn 96.592321 -25.882879 0.000000
vn 100.000000 -0.001458 0.000000
vn 96.592321 -25.882879 0.000000
vn 100.000000 -0.001458 0.000000
vn 96.592321 -25.882879 0.000000
vn 96.592321 -25.882879 0.000000
vn 86.602260 -50.000485 0.000000
vn 86.602260 -50.000485 0.000000
vn 70.710599 -70.710757 0.000000
vn 70.710599 -70.710757 0.000000
vn 50.000292 -86.602372 0.000000
vn 50.000292 -86.602372 0.000000
vn 25.882664 -96.592379 0.000000
vn 25.882664 -96.592379 0.000000
vn 0.001235 -100.000000 0.000000
vn 25.882664 -96.592379 0.000000
vn 0.001235 -100.000000 0.000000
vn 25.882664 -96.592379 0.000000
vn 25.882664 -96.592379 0.000000
vn 50.000292 -86.602372 0.000000
vn 50.000292 -86.602372 0.000000
vn 70.710599 -70.710757 0.000000
vn 70.710599 -70.710757 0.000000
vn 86.602260 -50.000485 0.000000
vn 86.602260 -50.000485 0.000000
vn 86.602260 -50.000485 0.000000
vn 70.710599 -70.710757 0.000000
vn 50.000292 -86.602372 0.000000
vn 100.000000 0.000000 0.000000
vn 100.000000 0.000000 0.000000
vn 100.000000 0.000000 0.000000
vn 100.000000 0.000000 0.000000
vn 0.000000 -100.000000 0.000000
vn 0.000000 -100.000000 0.000000
vn 0.000000 -100.000000 0.000000
vn 0.000000 -100.000000 0.000000
vn -25.882367 -96.592459 0.000000
vn -25.882367 -96.592459 0.000000
vn -0.000872 -100.000000 0.000000
vn -25.882367 -96.592459 0.000000
vn -0.000872 -100.000000 0.000000
vn -25.882367 -96.592459 0.000000
vn -25.882367 -96.592459 0.000000
vn -50.000074 -86.602497 0.000000
vn -50.000074 -86.602497 0.000000
vn -70.710461 -70.710895 0.000000
vn -70.710461 -70.710895 0.000000
vn -86.602190 -50.000606 0.000000
vn -86.602190 -50.000606 0.000000
vn -96.592300 -25.882960 0.000000
vn -96.592300 -25.882960 0.000000
vn -100.000000 -0.001486 0.000000
vn -96.592300 -25.882960 0.000000
vn -100.000000 -0.001486 0.000000
vn -96.592300 -25.882960 0.000000
vn -96.592300 -25.882960 0.000000
vn -86.602190 -50.000606 0.000000
vn -86.602190 -50.000606 0.000000
vn -70.710461 -70.710895 0.000000
vn -70.710461 -70.710895 0.000000
vn -50.000074 -86.602497 0.000000
vn -50.000074 -86.602497 0.000000
vn -50.000074 -86.602497 0.000000
vn -70.710461 -70.710895 0.000000
vn -86.602190 -50.000606 0.000000
vn -100.000000 0.000000 0.000000
vn -100.000000 0.000000 0.000000
vn -100.000000 0.000000 0.000000
vn -100.000000 0.000000 0.000000
vn -0.000000 -100.000000 0.000000
vn -0.000000 -100.000000 0.000000
vn -0.000000 -100.000000 0.000000
vn -0.000000 -100.000000 0.000000
vn 100.000000 0.000000 0.000000
vn 100.000000 0.000000 0.000000
vn 100.000000 0.000000 0.000000
vn 100.000000 0.000000 0.000000
vn 0.000000 0.000000 100.000000
vn 0.000000 0.000000 100.000000
vn 0.000000 0.000000 100.000000
vn 0.000000 0.000000 100.000000
vn 0.000000 0.000000 100.000000
vn 0.000000 0.000000 100.000000
vn 0.000000 0.000000 100.000000
vn 0.000000 0.000000 100.000000
vn 0.000000 0.000000 100.000000
vn 0.000000 0.000000 100.000000
vn 0.000000 0.000000 100.000000
vn 0.000000 0.000000 100.000000
vn 0.000000 0.000000 100.000000
vn 0.000000 0.000000 100.000000
vn 0.000000 0.000000 100.000000
vn 0.000000 0.000000 100.000000
vn 0.000000 0.000000 100.000000
vn 0.000000 0.000000 100.000000
vn 0.000000 0.000000 100.000000
vn 0.000000 0.000000 100.000000
vn 0.000000 0.000000 100.000000
vn 0.000000 0.000000 100.000000
vn 0.000000 0.000000 100.000000
vn 0.000000 0.000000 100.000000
vn 0.000000 0.000000 100.000000
vn 0.000000 0.000000 100.000000
vn 0.000000 0.000000 100.000000
vn 0.000000 0.000000 100.000000
vn 0.000000 0.000000 100.000000
vn 0.000000 0.000000 100.000000
vn 0.000000 0.000000 100.000000
vn 0.000000 0.000000 100.000000
vn 0.000000 0.000000 100.000000
vn 0.000000 0.000000 100.000000
vn 0.000000 0.000000 100.000000
vn 0.000000 0.000000 100.000000
vn -100.000000 0.000000 -0.000000
vn -100.000000 0.000000 -0.000000
vn -100.000000 0.000000 -0.000000
vn -100.000000 0.000000 -0.000000
vn 0.000000 -100.000000 0.000000
vn 0.000000 -100.000000 0.000000
vn 0.000000 -100.000000 0.000000
vn 0.000000 -100.000000 0.000000
vn 100.000000 -0.000000 0.000000
vn 100.000000 -0.000000 0.000000
vn 100.000000 -0.000000 0.000000
vn 100.000000 -0.000000 0.000000
vn -100.000000 0.000000 0.000000
vn -100.000000 0.000000 0.000000
vn -100.000000 0.000000 0.000000
vn -100.000000 0.000000 0.000000
vn -100.000000 0.000000 0.000000
vn -100.000000 0.000000 0.000000
vn -100.000000 0.000000 0.000000
vn -100.000000 0.000000 0.000000
vn 0.000000 0.000000 -100.000000
vn 0.000000 0.000000 -100.000000
vn 0.000000 0.000000 -100.000000
vn 0.000000 0.000000 -100.000000
vn 0.000000 0.000000 -100.000000
vn 0.000000 0.000000 -100.000000
vn 0.000000 0.000000 -100.000000
vn 0.000000 0.000000 -100.000000
vn 0.000000 100.000000 0.000000
vn 0.000000 100.000000 0.000000
vn 0.000000 100.000000 0.000000
vn 0.000000 100.000000 0.000000
vn 0.000000 -100.000000 0.000000
vn 0.000000 -100.000000 0.000000
vn 0.000000 -100.000000 0.000000
vn 0.000000 -100.000000 0.000000
vn 0.000000 0.000000 -100.000000
vn 0.000000 0.000000 -100.000000
vn 0.000000 0.000000 -100.000000
vn 0.000000 0.000000 -100.000000
vn 0.000000 0.000000 -100.000000
vn 0.000000 0.000000 -100.000000
vn 0.000000 0.000000 -100.000000
vn 0.000000 0.000000 -100.000000
vn 0.000000 0.000000 -100.000000
vn 0.000000 0.000000 -100.000000
vn 0.000000 0.000000 -100.000000
vn 0.000000 0.000000 -100.000000
vn 0.000000 0.000000 -100.000000
vn 0.000000 0.000000 -100.000000
vn 0.000000 0.000000 -100.000000
vn 0.000000 0.000000 -100.000000
vn 0.000000 0.000000 -100.000000
vn 0.000000 0.000000 -100.000000
vn 0.000000 0.000000 -100.000000
vn 0.000000 0.000000 -100.000000
vn 0.000000 0.000000 -100.000000
vn 0.000000 0.000000 -100.000000
vn 0.000000 0.000000 -100.000000
vn 0.000000 0.000000 -100.000000
vn 0.000000 0.000000 -100.000000
vn 0.000000 0.000000 -100.000000
vn 0.000000 0.000000 -100.000000
vn 0.000000 0.000000 -100.000000
vn 0.000000 0.000000 -100.000000
vn 0.000000 0.000000 -100.000000
vn 0.000000 0.000000 -100.000000
vn 0.000000 0.000000 -100.000000
vn 0.000000 0.000000 -100.000000
vn 0.000000 0.000000 -100.000000
vn 0.000000 0.000000 -100.000000
vn 0.000000 0.000000 -100.000000
vn 0.000000 0.000000 -100.000000
vn 0.000000 0.000000 -100.000000
vn 0.000000 0.000000 -100.000000
vn 0.000000 0.000000 -100.000000
vn 0.000000 0.000000 -100.000000
vn 0.000000 0.000000 -100.000000
vn 0.000000 0.000000 -100.000000
vn 0.000000 0.000000 -100.000000
vn 0.000000 0.000000 -100.000000
vn 0.000000 0.000000 -100.000000
vn 0.000000 0.000000 -100.000000
vn 0.000000 0.000000 -100.000000
vn 0.000000 0.000000 -100.000000
vn 0.000000 0.000000 -100.000000
vn 0.000000 0.000000 -100.000000
vn 0.000000 0.000000 -100.000000
vn 0.000000 0.000000 -100.000000
vn 0.000000 0.000000 -100.000000
vn 0.000000 0.000000 -100.000000
vn 0.000000 0.000000 -100.000000
vn 0.000000 0.000000 -100.000000
vn 0.000000 0.000000 -100.000000
vn 0.000000 0.000000 -100.000000
vn 0.000000 0.000000 -100.000000
vn 0.000000 0.000000 -100.000000
vn 0.000000 0.000000 -100.000000
vn 0.000000 0.000000 -100.000000
vn 0.000000 0.000000 -100.000000
vn 0.000000 0.000000 -100.000000
vn 0.000000 0.000000 -100.000000
vn 0.000000 0.000000 -100.000000
vn 0.000000 0.000000 -100.000000
vn 0.000000 0.000000 -100.000000
vn 0.000000 0.000000 -100.000000
vn 0.000000 0.000000 -100.000000
vn 0.000000 0.000000 -100.000000
vn 0.000000 0.000000 -100.000000
vn 0.000000 0.000000 -100.000000
vn 0.000000 0.000000 -100.000000
vn 0.000000 0.000000 -100.000000
vn 0.000000 0.000000 -100.000000
vn 0.000000 0.000000 -100.000000
vn 0.000000 0.000000 -100.000000
vn 0.000000 0.000000 -100.000000
vn 0.000000 0.000000 -100.000000
vn 0.000000 0.000000 -100.000000
vn 0.000000 0.000000 -100.000000
vn 0.000000 0.000000 -100.000000
vn 0.000000 0.000000 -100.000000
vn 0.000000 0.000000 -100.000000
vn 0.000000 0.000000 -100.000000
vn 0.000000 0.000000 -100.000000
vn 0.000000 0.000000 -100.000000
vn 0.000000 0.000000 -100.000000
vn 0.000000 0.000000 -100.000000
vn 0.000000 0.000000 -100.000000
vn 0.000000 0.000000 -100.000000
vn 0.000000 0.000000 -100.000000
vn 0.000000 0.000000 -100.000000
vn 0.000000 0.000000 -100.000000
vn 0.000000 0.000000 -100.000000
vn 0.000000 0.000000 -100.000000
vn 0.000000 0.000000 -100.000000
vn 0.000000 0.000000 -100.000000
vn 0.000000 0.000000 -100.000000
vn 0.000000 0.000000 -100.000000
vn 0.000000 0.000000 -100.000000
vn 0.000000 0.000000 -100.000000
vn 0.000000 0.000000 -100.000000
vn 0.000000 0.000000 -100.000000
vn 0.000000 0.000000 -100.000000
vn 0.000000 0.000000 -100.000000
vn 0.000000 0.000000 -100.000000
vn 0.000000 0.000000 -100.000000
vn 0.000000 0.000000 -100.000000
vn 0.000000 0.000000 -100.000000
vn 0.000000 0.000000 -100.000000
vn 0.000000 0.000000 -100.000000
vn 0.000000 0.000000 -100.000000
vn 0.000000 0.000000 -100.000000
vn 0.000000 0.000000 -100.000000
vn 0.000000 0.000000 -100.000000
vn 0.000000 0.000000 -100.000000
vn 0.000000 0.000000 -100.000000
vn 0.000000 0.000000 -100.000000
vn 0.000000 0.000000 -100.000000
vn 0.000000 0.000000 -100.000000
vn 0.000000 0.000000 -100.000000
vn 100.000000 -0.000000 0.000000
vn 100.000000 -0.000000 0.000000
vn 100.000000 -0.000000 0.000000
vn 100.000000 -0.000000 0.000000
vn 0.000000 -100.000000 0.000000
vn 0.000000 -100.000000 0.000000
vn 0.000000 -100.000000 0.000000
vn 0.000000 -100.000000 0.000000
vn -100.000000 0.000000 0.000000
vn -100.000000 0.000000 0.000000
vn -100.000000 0.000000 0.000000
vn -100.000000 0.000000 0.000000
vn 0.000000 100.000000 0.000000
vn 0.000000 100.000000 0.000000
vn 0.000000 100.000000 0.000000
vn 0.000000 100.000000 0.000000
vn -97.814760 20.791169 0.000000
vn -97.814760 20.791169 0.000000
vn -100.000000 0.000000 0.000000
vn -100.000000 0.000000 0.000000
vn -97.814760 -20.791169 0.000000
vn -97.814760 -20.791169 0.000000
vn -91.354546 -40.673664 0.000000
vn -91.354546 -40.673664 0.000000
vn -80.901699 -58.778525 0.000000
vn -80.901699 -58.778525 0.000000
vn -66.913061 -74.314483 0.000000
vn -66.913061 -74.314483 0.000000
vn -50.000000 -86.602540 0.000000
vn -50.000000 -86.602540 0.000000
vn -30.901699 -95.105652 0.000000
vn -30.901699 -95.105652 0.000000
vn -10.452846 -99.452190 0.000000
vn -10.452846 -99.452190 0.000000
vn 10.452846 -99.452190 0.000000
vn 10.452846 -99.452190 0.000000
vn 30.901699 -95.105652 0.000000
vn 30.901699 -95.105652 0.000000
vn 50.000000 -86.602540 0.000000
vn 50.000000 -86.602540 0.000000
vn 66.913061 -74.314483 0.000000
vn 66.913061 -74.314483 0.000000
vn 80.901699 -58.778525 0.000000
vn 80.901699 -58.778525 0.000000
vn 91.354546 -40.673664 0.000000
vn 91.354546 -40.673664 0.000000
vn 97.814760 -20.791169 0.000000
vn 97.814760 -20.791169 0.000000
vn 100.000000 -0.000000 0.000000
vn 100.000000 -0.000000 0.000000
vn 97.814760 20.791169 0.000000
vn 97.814760 20.791169 0.000000
vn 91.354546 40.673664 0.000000
vn 91.354546 40.673664 0.000000
vn 80.901699 58.778525 0.000000
vn 80.901699 58.778525 0.000000
vn 66.913061 74.314483 0.000000
vn 66.913061 74.314483 0.000000
vn 50.000000 86.602540 0.000000
vn 50.000000 86.602540 0.000000
vn 30.901699 95.105652 0.000000
vn 30.901699 95.105652 0.000000
vn 10.452846 99.452190 0.000000
vn 10.452846 99.452190 0.000000
vn -10.452846 99.452190 0.000000
vn -10.452846 99.452190 0.000000
vn -30.901699 95.105652 0.000000
vn -30.901699 95.105652 0.000000
vn -50.000000 86.602540 0.000000
vn -50.000000 86.602540 0.000000
vn -66.913061 74.314483 0.000000
vn -66.913061 74.314483 0.000000
vn -80.901699 58.778525 0.000000
vn -80.901699 58.778525 0.000000
vn -91.354546 40.673664 0.000000
vn -91.354546 40.673664 0.000000
vn -97.814760 20.791169 0.000000
vn -97.814760 20.791169 0.000000
vn -100.000000 0.000000 0.000000
vn -100.000000 0.000000 0.000000
vn -97.814760 -20.791169 0.000000
vn -97.814760 -20.791169 0.000000
vn -91.354546 -40.673664 0.000000
vn -91.354546 -40.673664 0.000000
vn -80.901699 -58.778525 0.000000
vn -80.901699 -58.778525 0.000000
vn -66.913061 -74.314483 0.000000
vn -66.913061 -74.314483 0.000000
vn -50.000000 -86.602540 0.000000
vn -50.000000 -86.602540 0.000000
vn -30.901699 -95.105652 0.000000
vn -30.901699 -95.105652 0.000000
vn -10.452846 -99.452190 0.000000
vn -10.452846 -99.452190 0.000000
vn 10.452846 -99.452190 0.000000
vn 10.452846 -99.452190 0.000000
vn 30.901699 -95.105652 0.000000
vn 30.901699 -95.105652 0.000000
vn 50.000000 -86.602540 0.000000
vn 50.000000 -86.602540 0.000000
vn 66.913061 -74.314483 0.000000
vn 66.913061 -74.314483 0.000000
vn 80.901699 -58.778525 0.000000
vn 80.901699 -58.778525 0.000000
vn 91.354546 -40.673664 0.000000
vn 91.354546 -40.673664 0.000000
vn 97.814760 -20.791169 0.000000
vn 97.814760 -20.791169 0.000000
vn 100.000000 -0.000000 0.000000
vn 100.000000 -0.000000 0.000000
vn 97.814760 20.791169 0.000000
vn 97.814760 20.791169 0.000000
vn 91.354546 40.673664 0.000000
vn 91.354546 40.673664 0.000000
vn 80.901699 58.778525 0.000000
vn 80.901699 58.778525 0.000000
vn 66.913061 74.314483 0.000000
vn 66.913061 74.314483 0.000000
vn 50.000000 86.602540 0.000000
vn 50.000000 86.602540 0.000000
vn 30.901699 95.105652 0.000000
vn 30.901699 95.105652 0.000000
vn 10.452846 99.452190 0.000000
vn 10.452846 99.452190 0.000000
vn -10.452846 99.452190 0.000000
vn -10.452846 99.452190 0.000000
vn -30.901699 95.105652 0.000000
vn -30.901699 95.105652 0.000000
vn -50.000000 86.602540 0.000000
vn -50.000000 86.602540 0.000000
vn -66.913061 74.314483 0.000000
vn -66.913061 74.314483 0.000000
vn -80.901699 58.778525 0.000000
vn -80.901699 58.778525 0.000000
vn -91.354546 40.673664 0.000000
vn -91.354546 40.673664 0.000000
vn -97.814760 20.791169 0.000000
vn -97.814760 20.791169 0.000000
vn -100.000000 0.000000 0.000000
vn -100.000000 0.000000 0.000000
vn -97.814760 -20.791169 0.000000
vn -97.814760 -20.791169 0.000000
vn -91.354546 -40.673664 0.000000
vn -91.354546 -40.673664 0.000000
vn -80.901699 -58.778525 0.000000
vn -80.901699 -58.778525 0.000000
vn -66.913061 -74.314483 0.000000
vn -66.913061 -74.314483 0.000000
vn -50.000000 -86.602540 0.000000
vn -50.000000 -86.602540 0.000000
vn -30.901699 -95.105652 0.000000
vn -30.901699 -95.105652 0.000000
vn -10.452846 -99.452190 0.000000
vn -10.452846 -99.452190 0.000000
vn 10.452846 -99.452190 0.000000
vn 10.452846 -99.452190 0.000000
vn 30.901699 -95.105652 0.000000
vn 30.901699 -95.105652 0.000000
vn 50.000000 -86.602540 0.000000
vn 50.000000 -86.602540 0.000000
vn 66.913061 -74.314483 0.000000
vn 66.913061 -74.314483 0.000000
vn 80.901699 -58.778525 0.000000
vn 80.901699 -58.778525 0.000000
vn 91.354546 -40.673664 0.000000
vn 91.354546 -40.673664 0.000000
vn 97.814760 -20.791169 0.000000
vn 97.814760 -20.791169 0.000000
vn 100.000000 -0.000000 0.000000
vn 100.000000 -0.000000 0.000000
vn 97.814760 20.791169 0.000000
vn 97.814760 20.791169 0.000000
vn 91.354546 40.673664 0.000000
vn 91.354546 40.673664 0.000000
vn 80.901699 58.778525 0.000000
vn 80.901699 58.778525 0.000000
vn 66.913061 74.314483 0.000000
vn 66.913061 74.314483 0.000000
vn 50.000000 86.602540 0.000000
vn 50.000000 86.602540 0.000000
vn 30.901699 95.105652 0.000000
vn 30.901699 95.105652 0.000000
vn 10.452846 99.452190 0.000000
vn 10.452846 99.452190 0.000000
vn -10.452846 99.452190 0.000000
vn -10.452846 99.452190 0.000000
vn -30.901699 95.105652 0.000000
vn -30.901699 95.105652 0.000000
vn -50.000000 86.602540 0.000000
vn -50.000000 86.602540 0.000000
vn -66.913061 74.314483 0.000000
vn -66.913061 74.314483 0.000000
vn -80.901699 58.778525 0.000000
vn -80.901699 58.778525 0.000000
vn -91.354546 40.673664 0.000000
vn -91.354546 40.673664 0.000000
vn -97.814760 20.791169 0.000000
vn -97.814760 20.791169 0.000000
vn -100.000000 0.000000 0.000000
vn -100.000000 0.000000 0.000000
vn -97.814760 -20.791169 0.000000
vn -97.814760 -20.791169 0.000000
vn -91.354546 -40.673664 0.000000
vn -91.354546 -40.673664 0.000000
vn -80.901699 -58.778525 0.000000
vn -80.901699 -58.778525 0.000000
vn -66.913061 -74.314483 0.000000
vn -66.913061 -74.314483 0.000000
vn -50.000000 -86.602540 0.000000
vn -50.000000 -86.602540 0.000000
vn -30.901699 -95.105652 0.000000
vn -30.901699 -95.105652 0.000000
vn -10.452846 -99.452190 0.000000
vn -10.452846 -99.452190 0.000000
vn 10.452846 -99.452190 0.000000
vn 10.452846 -99.452190 0.000000
vn 30.901699 -95.105652 0.000000
vn 30.901699 -95.105652 0.000000
vn 50.000000 -86.602540 0.000000
vn 50.000000 -86.602540 0.000000
vn 66.913061 -74.314483 0.000000
vn 66.913061 -74.314483 0.000000
vn 80.901699 -58.778525 0.000000
vn 80.901699 -58.778525 0.000000
vn 91.354546 -40.673664 0.000000
vn 91.354546 -40.673664 0.000000
vn 97.814760 -20.791169 0.000000
vn 97.814760 -20.791169 0.000000
vn 100.000000 -0.000000 0.000000
vn 100.000000 -0.000000 0.000000
vn 97.814760 20.791169 0.000000
vn 97.814760 20.791169 0.000000
vn 91.354546 40.673664 0.000000
vn 91.354546 40.673664 0.000000
vn 80.901699 58.778525 0.000000
vn 80.901699 58.778525 0.000000
vn 66.913061 74.314483 0.000000
vn 66.913061 74.314483 0.000000
vn 50.000000 86.602540 0.000000
vn 50.000000 86.602540 0.000000
vn 30.901699 95.105652 0.000000
vn 30.901699 95.105652 0.000000
vn 10.452846 99.452190 0.000000
vn 10.452846 99.452190 0.000000
vn -10.452846 99.452190 0.000000
vn -10.452846 99.452190 0.000000
vn -30.901699 95.105652 0.000000
vn -30.901699 95.105652 0.000000
vn -50.000000 86.602540 0.000000
vn -50.000000 86.602540 0.000000
vn -66.913061 74.314483 0.000000
vn -66.913061 74.314483 0.000000
vn -80.901699 58.778525 0.000000
vn -80.901699 58.778525 0.000000
vn -91.354546 40.673664 0.000000
vn -91.354546 40.673664 0.000000
vn 0.000000 0.000000 100.000000
vn 0.000000 0.000000 100.000000
vn 0.000000 0.000000 100.000000
vn 0.000000 0.000000 100.000000
vn 0.000000 0.000000 100.000000
vn 0.000000 0.000000 100.000000
vn 0.000000 0.000000 100.000000
vn 0.000000 0.000000 100.000000
vn 0.000000 0.000000 100.000000
vn 0.000000 0.000000 100.000000
vn 0.000000 0.000000 100.000000
vn 0.000000 0.000000 100.000000
vn 0.000000 0.000000 100.000000
vn 0.000000 0.000000 100.000000
vn 0.000000 0.000000 100.000000
vn 0.000000 0.000000 100.000000
vn 0.000000 0.000000 100.000000
vn 0.000000 0.000000 100.000000
vn 0.000000 0.000000 100.000000
vn 0.000000 0.000000 100.000000
vn 0.000000 0.000000 100.000000
vn 0.000000 0.000000 100.000000
vn 0.000000 0.000000 100.000000
vn 0.000000 0.000000 100.000000
vn 0.000000 0.000000 100.000000
vn 0.000000 0.000000 100.000000
vn 0.000000 0.000000 100.000000
vn 0.000000 0.000000 100.000000
vn 0.000000 0.000000 100.000000
vn 0.000000 0.000000 100.000000
vn 0.000000 0.000000 100.000000
vn 0.000000 0.000000 100.000000
vn 0.000000 0.000000 100.000000
vn 0.000000 0.000000 100.000000
vn 0.000000 0.000000 100.000000
vn 0.000000 0.000000 100.000000
vn 0.000000 0.000000 100.000000
vn 0.000000 0.000000 100.000000
vn 0.000000 0.000000 100.000000
vn 0.000000 0.000000 100.000000
vn 0.000000 0.000000 100.000000
vn 0.000000 0.000000 100.000000
vn 0.000000 0.000000 100.000000
vn 0.000000 0.000000 100.000000
vn 0.000000 0.000000 100.000000
vn 0.000000 0.000000 100.000000
vn 0.000000 0.000000 100.000000
vn 0.000000 0.000000 100.000000
vn 0.000000 0.000000 100.000000
vn 0.000000 0.000000 100.000000
vn 0.000000 0.000000 100.000000
vn 0.000000 0.000000 100.000000
vn 0.000000 0.000000 100.000000
vn 0.000000 0.000000 100.000000
vn 0.000000 0.000000 100.000000
vn 0.000000 0.000000 100.000000
vn 0.000000 0.000000 100.000000
vn 0.000000 0.000000 100.000000
vn 0.000000 0.000000 100.000000
vn 0.000000 0.000000 100.000000
vn 0.000000 0.000000 100.000000
vn 0.000000 0.000000 100.000000
vn 0.000000 0.000000 100.000000
vn 0.000000 0.000000 100.000000
vn 0.000000 0.000000 100.000000
vn 0.000000 0.000000 100.000000
vn 0.000000 0.000000 100.000000
vn 0.000000 0.000000 100.000000
vn 0.000000 0.000000 100.000000
vn 0.000000 0.000000 100.000000
vn 0.000000 0.000000 100.000000
vn 0.000000 0.000000 100.000000
vn 0.000000 0.000000 100.000000
vn 0.000000 0.000000 100.000000
vn 0.000000 0.000000 100.000000
vn 0.000000 0.000000 100.000000
vn 0.000000 0.000000 100.000000
vn 0.000000 0.000000 100.000000
vn 0.000000 0.000000 100.000000
vn 0.000000 0.000000 100.000000
vn 0.000000 0.000000 100.000000
vn 0.000000 0.000000 100.000000
vn 0.000000 0.000000 100.000000
vn 0.000000 0.000000 100.000000
vn 0.000000 0.000000 100.000000
vn 0.000000 0.000000 100.000000
vn 0.000000 0.000000 100.000000
vn 0.000000 0.000000 100.000000
vn 0.000000 0.000000 100.000000
vn 0.000000 0.000000 100.000000
vn 0.000000 0.000000 100.000000
vn 0.000000 0.000000 100.000000
vn 0.000000 0.000000 100.000000
vn 0.000000 0.000000 100.000000
vn 0.000000 0.000000 100.000000
vn 0.000000 0.000000 100.000000
vn 0.000000 0.000000 100.000000
vn 0.000000 0.000000 100.000000
vn 0.000000 0.000000 100.000000
vn 0.000000 0.000000 100.000000
vn 0.000000 0.000000 100.000000
vn 0.000000 0.000000 100.000000
vn 0.000000 0.000000 100.000000
vn 0.000000 0.000000 100.000000
vn 0.000000 0.000000 100.000000
vn 0.000000 0.000000 100.000000
vn 0.000000 0.000000 100.000000
vn 0.000000 0.000000 100.000000
vn 0.000000 0.000000 100.000000
vn 0.000000 0.000000 100.000000
vn 0.000000 0.000000 100.000000
vn 0.000000 0.000000 100.000000
vn 0.000000 0.000000 100.000000
vn 0.000000 0.000000 100.000000
vn 0.000000 0.000000 100.000000
vn 0.000000 0.000000 100.000000
vn 0.000000 0.000000 100.000000
vn 0.000000 0.000000 100.000000
vn 0.000000 0.000000 100.000000
vn 0.000000 0.000000 100.000000
vn 0.000000 0.000000 100.000000
vn 0.000000 0.000000 100.000000
vn 0.000000 0.000000 100.000000
vn 0.000000 0.000000 100.000000
vn 0.000000 0.000000 100.000000
vn 0.000000 0.000000 100.000000
vn 0.000000 0.000000 100.000000
vn 0.000000 0.000000 100.000000
vn 0.000000 0.000000 100.000000
vn 0.000000 0.000000 100.000000
vn 0.000000 0.000000 100.000000
vn 0.000000 0.000000 100.000000
vn 0.000000 0.000000 100.000000
vn 0.000000 0.000000 100.000000
vn 0.000000 0.000000 100.000000
vn 0.000000 0.000000 100.000000
vn 0.000000 0.000000 100.000000
vn 0.000000 0.000000 100.000000
vn 0.000000 0.000000 100.000000
vn 0.000000 0.000000 100.000000
vn 0.000000 0.000000 100.000000
vn 0.000000 0.000000 100.000000
vn 0.000000 0.000000 100.000000
vn 0.000000 0.000000 100.000000
vn 0.000000 0.000000 100.000000
vn 0.000000 0.000000 100.000000
vn 0.000000 0.000000 100.000000
vn 0.000000 0.000000 100.000000
vn 0.000000 0.000000 100.000000
vn 0.000000 0.000000 100.000000
vn 0.000000 0.000000 100.000000
vn 0.000000 0.000000 100.000000
vn 0.000000 0.000000 100.000000
vn 0.000000 0.000000 100.000000
vn 0.000000 0.000000 100.000000
vn 0.000000 0.000000 100.000000
vn 0.000000 0.000000 100.000000
vn 0.000000 0.000000 100.000000
vn 0.000000 0.000000 100.000000
vn 0.000000 0.000000 100.000000
vn 0.000000 0.000000 100.000000
vn 0.000000 0.000000 100.000000
vn 0.000000 0.000000 100.000000
vn 0.000000 0.000000 100.000000
vn 0.000000 0.000000 100.000000
vn 0.000000 0.000000 100.000000
vn 0.000000 0.000000 100.000000
vn 0.000000 0.000000 100.000000
vn 0.000000 100.000000 0.000000
vn 0.000000 100.000000 0.000000
vn 0.000000 100.000000 0.000000
vn 0.000000 100.000000 0.000000
vn 100.000000 0.000000 0.000000
vn 100.000000 0.000000 0.000000
vn 100.000000 0.000000 0.000000
vn 100.000000 0.000000 0.000000
usemtl Plastic_-_Glossy_(Black)
f 2/1/1 15/2/2 1/3/3
f 1/3/3 15/2/2 16/4/4
f 1/3/3 16/4/4 14/5/5
f 14/5/5 16/4/4 17/6/6
f 14/5/5 17/6/6 13/7/7
f 13/7/7 17/6/6 12/8/8
f 12/8/8 17/6/6 20/9/9
f 12/8/8 20/9/9 11/10/10
f 11/10/10 20/9/9 23/11/11
f 11/10/10 23/11/11 10/12/12
f 10/12/12 23/11/11 26/13/13
f 10/12/12 26/13/13 9/14/14
f 9/14/14 26/13/13 29/15/15
f 9/14/14 29/15/15 8/16/16
f 8/16/16 29/15/15 28/17/17
f 8/16/16 28/17/17 7/18/18
f 7/18/18 28/17/17 27/19/19
f 7/18/18 27/19/19 6/20/20
f 6/20/20 27/19/19 5/21/21
f 5/21/21 27/19/19 24/22/22
f 5/21/21 24/22/22 4/23/23
f 4/23/23 24/22/22 21/24/24
f 4/23/23 21/24/24 3/25/25
f 3/25/25 21/24/24 18/26/26
f 3/25/25 18/26/26 2/1/1
f 2/1/1 18/26/26 15/2/2
f 20/9/9 17/6/6 16/4/4
f 16/4/4 15/2/2 19/27/27
f 19/27/27 15/2/2 18/26/26
f 19/27/27 18/26/26 22/28/28
f 22/28/28 18/26/26 21/24/24
f 22/28/28 21/24/24 25/29/29
f 25/29/29 21/24/24 24/22/22
f 25/29/29 24/22/22 28/17/17
f 28/17/17 24/22/22 27/19/19
f 23/11/11 20/9/9 19/27/27
f 19/27/27 20/9/9 16/4/4
f 23/11/11 19/27/27 22/28/28
f 26/13/13 23/11/11 22/28/28
f 26/13/13 22/28/28 25/29/29
f 29/15/15 26/13/13 25/29/29
f 29/15/15 25/29/29 28/17/17
f 31/30/30 1/31/31 30/32/32
f 30/32/32 1/31/31 14/33/33
f 32/34/34 33/35/35 7/36/36
f 7/36/36 33/35/35 8/37/37
f 35/38/38 36/39/39 34/40/40
f 34/40/40 36/39/39 37/41/41
f 39/42/42 40/43/43 38/44/44
f 38/44/44 40/43/43 41/45/45
f 42/46/46 52/47/47 40/48/48
f 40/48/48 52/47/47 53/49/49
f 40/48/48 53/49/49 41/50/50
f 41/50/50 53/49/49 54/51/51
f 41/50/50 54/51/51 51/52/52
f 51/52/52 54/51/51 50/53/53
f 50/53/53 54/51/51 57/54/54
f 50/53/53 57/54/54 49/55/55
f 49/55/55 57/54/54 60/56/56
f 49/55/55 60/56/56 48/57/57
f 48/57/57 60/56/56 63/58/58
f 48/57/57 63/58/58 47/59/59
f 47/59/59 63/58/58 66/60/60
f 47/59/59 66/60/60 36/61/61
f 36/61/61 66/60/60 65/62/62
f 36/61/61 65/62/62 37/63/63
f 37/63/63 65/62/62 64/64/64
f 37/63/63 64/64/64 46/65/65
f 46/65/65 64/64/64 45/66/66
f 45/66/66 64/64/64 61/67/67
f 45/66/66 61/67/67 44/68/68
f 44/68/68 61/67/67 58/69/69
f 44/68/68 58/69/69 43/70/70
f 43/70/70 58/69/69 55/71/71
f 43/70/70 55/71/71 42/46/46
f 42/46/46 55/71/71 52/47/47
f 57/54/54 54/51/51 53/49/49
f 53/49/49 52/47/47 56/72/72
f 56/72/72 52/47/47 55/71/71
f 56/72/72 55/71/71 59/73/73
f 59/73/73 55/71/71 58/69/69
f 59/73/73 58/69/69 62/74/74
f 62/74/74 58/69/69 61/67/67
f 62/74/74 61/67/67 65/62/62
f 65/62/62 61/67/67 64/64/64
f 60/56/56 57/54/54 56/72/72
f 56/72/72 57/54/54 53/49/49
f 60/56/56 56/72/72 59/73/73
f 63/58/58 60/56/56 59/73/73
f 63/58/58 59/73/73 62/74/74
f 66/60/60 63/58/58 62/74/74
f 66/60/60 62/74/74 65/62/62
f 32/75/75 39/76/76 33/77/77
f 33/77/77 39/76/76 38/78/78
f 67/79/79 68/80/80 70/81/81
f 70/81/81 68/80/80 69/82/82
f 72/83/83 83/84/84 71/85/85
f 71/85/85 83/84/84 84/86/86
f 71/85/85 84/86/86 82/87/87
f 82/87/87 84/86/86 85/88/88
f 82/87/87 85/88/88 81/89/89
f 81/89/89 85/88/88 80/90/90
f 80/90/90 85/88/88 88/91/91
f 80/90/90 88/91/91 79/92/92
f 79/92/92 88/91/91 91/93/93
f 79/92/92 91/93/93 78/94/94
f 78/94/94 91/93/93 94/95/95
f 78/94/94 94/95/95 77/96/96
f 77/96/96 94/95/95 97/97/97
f 77/96/96 97/97/97 69/98/98
f 69/98/98 97/97/97 96/99/99
f 69/98/98 96/99/99 70/100/100
f 70/100/100 96/99/99 95/101/101
f 70/100/100 95/101/101 76/102/102
f 76/102/102 95/101/101 75/103/103
f 75/103/103 95/101/101 92/104/104
f 75/103/103 92/104/104 74/105/105
f 74/105/105 92/104/104 89/106/106
f 74/105/105 89/106/106 73/107/107
f 73/107/107 89/106/106 86/108/108
f 73/107/107 86/108/108 72/83/83
f 72/83/83 86/108/108 83/84/84
f 88/91/91 85/88/88 84/86/86
f 84/86/86 83/84/84 87/109/109
f 87/109/109 83/84/84 86/108/108
f 87/109/109 86/108/108 90/110/110
f 90/110/110 86/108/108 89/106/106
f 90/110/110 89/106/106 93/111/111
f 93/111/111 89/106/106 92/104/104
f 93/111/111 92/104/104 96/99/99
f 96/99/99 92/104/104 95/101/101
f 91/93/93 88/91/91 87/109/109
f 87/109/109 88/91/91 84/86/86
f 91/93/93 87/109/109 90/110/110
f 94/95/95 91/93/93 90/110/110
f 94/95/95 90/110/110 93/111/111
f 97/97/97 94/95/95 93/111/111
f 97/97/97 93/111/111 96/99/99
f 99/112/112 71/113/113 98/114/114
f 98/114/114 71/113/113 82/115/115
f 98/116/116 100/117/117 99/118/118
f 99/118/118 100/117/117 101/119/119
f 103/120/120 116/121/121 102/122/122
f 102/122/122 116/121/121 117/123/123
f 102/122/122 117/123/123 115/124/124
f 115/124/124 117/123/123 118/125/125
f 115/124/124 118/125/125 114/126/126
f 114/126/126 118/125/125 113/127/127
f 113/127/127 118/125/125 121/128/128
f 113/127/127 121/128/128 112/129/129
f 112/129/129 121/128/128 124/130/130
f 112/129/129 124/130/130 111/131/131
f 111/131/131 124/130/130 127/132/132
f 111/131/131 127/132/132 110/133/133
f 110/133/133 127/132/132 130/134/134
f 110/133/133 130/134/134 109/135/135
f 109/135/135 130/134/134 129/136/136
f 109/135/135 129/136/136 108/137/137
f 108/137/137 129/136/136 128/138/138
f 108/137/137 128/138/138 107/139/139
f 107/139/139 128/138/138 106/140/140
f 106/140/140 128/138/138 125/141/141
f 106/140/140 125/141/141 105/142/142
f 105/142/142 125/141/141 122/143/143
f 105/142/142 122/143/143 104/144/144
f 104/144/144 122/143/143 119/145/145
f 104/144/144 119/145/145 103/120/120
f 103/120/120 119/145/145 116/121/121
f 121/128/128 118/125/125 117/123/123
f 117/123/123 116/121/121 120/146/146
f 120/146/146 116/121/121 119/145/145
f 120/146/146 119/145/145 123/147/147
f 123/147/147 119/145/145 122/143/143
f 123/147/147 122/143/143 126/148/148
f 126/148/148 122/143/143 125/141/141
f 126/148/148 125/141/141 129/136/136
f 129/136/136 125/141/141 128/138/138
f 124/130/130 121/128/128 120/146/146
f 120/146/146 121/128/128 117/123/123
f 124/130/130 120/146/146 123/147/147
f 127/132/132 124/130/130 123/147/147
f 127/132/132 123/147/147 126/148/148
f 130/134/134 127/132/132 126/148/148
f 130/134/134 126/148/148 129/136/136
f 101/149/149 100/150/150 108/151/151
f 108/151/151 100/150/150 109/152/152
f 132/153/153 102/154/154 131/155/155
f 131/155/155 102/154/154 115/156/156
f 67/157/157 31/158/158 68/159/159
f 68/159/159 31/158/158 30/160/160
f 33/161/161 41/162/162 8/163/163
f 8/163/163 41/162/162 51/164/164
f 8/163/163 51/164/164 9/165/165
f 9/165/165 51/164/164 50/166/166
f 9/165/165 50/166/166 10/167/167
f 10/167/167 50/166/166 49/168/168
f 10/167/167 49/168/168 11/169/169
f 11/169/169 49/168/168 79/170/170
f 11/169/169 79/170/170 78/171/171
f 33/161/161 38/172/172 41/162/162
f 79/170/170 49/168/168 112/173/173
f 112/173/173 49/168/168 48/174/174
f 112/173/173 48/174/174 113/175/175
f 113/175/175 48/174/174 47/176/176
f 113/175/175 47/176/176 114/177/177
f 114/177/177 47/176/176 36/178/178
f 114/177/177 36/178/178 115/179/179
f 115/179/179 36/178/178 35/180/180
f 115/179/179 35/180/180 131/181/181
f 79/170/170 112/173/173 80/182/182
f 80/182/182 112/173/173 111/183/183
f 80/182/182 111/183/183 81/184/184
f 81/184/184 111/183/183 110/185/185
f 81/184/184 110/185/185 82/186/186
f 82/186/186 110/185/185 109/187/187
f 82/186/186 109/187/187 100/188/188
f 100/188/188 98/189/189 82/186/186
f 11/169/169 78/171/171 12/190/190
f 12/190/190 78/171/171 77/191/191
f 12/190/190 77/191/191 13/192/192
f 13/192/192 77/191/191 69/193/193
f 13/192/192 69/193/193 14/194/194
f 14/194/194 69/193/193 68/195/195
f 14/194/194 68/195/195 30/196/196
f 34/197/197 132/198/198 35/199/199
f 35/199/199 132/198/198 131/200/200
f 133/201/201 134/202/202 136/203/203
f 136/203/203 134/202/202 135/204/204
f 137/205/205 133/206/206 138/207/207
f 138/207/207 133/206/206 136/208/208
f 139/209/209 140/210/210 142/211/211
f 142/211/211 140/210/210 141/212/212
f 134/213/213 143/214/214 135/215/215
f 135/215/215 143/214/214 144/216/216
f 136/217/217 146/218/218 138/219/219
f 138/219/219 146/218/218 140/220/220
f 138/219/219 140/220/220 144/221/221
f 144/221/221 140/220/220 135/222/222
f 135/222/222 140/220/220 139/223/223
f 135/222/222 139/223/223 145/224/224
f 146/218/218 136/217/217 145/224/224
f 145/224/224 136/217/217 135/222/222
f 143/225/225 137/226/226 144/227/227
f 144/227/227 137/226/226 138/228/228
f 142/229/229 147/230/230 139/231/231
f 139/231/231 147/230/230 145/232/232
f 177/233/233 148/234/234 268/235/235
f 268/235/235 148/234/234 149/236/236
f 268/235/235 149/236/236 150/237/237
f 150/237/237 151/238/238 268/235/235
f 268/235/235 151/238/238 152/239/239
f 268/235/235 152/239/239 153/240/240
f 153/240/240 154/241/241 268/235/235
f 268/235/235 154/241/241 155/242/242
f 268/235/235 155/242/242 156/243/243
f 156/243/243 157/244/244 268/235/235
f 268/235/235 157/244/244 184/245/245
f 268/235/235 184/245/245 271/246/246
f 271/246/246 184/245/245 185/247/247
f 271/246/246 185/247/247 186/248/248
f 184/245/245 157/244/244 183/249/249
f 183/249/249 157/244/244 158/250/250
f 183/249/249 158/250/250 182/251/251
f 182/251/251 158/250/250 159/252/252
f 182/251/251 159/252/252 181/253/253
f 181/253/253 159/252/252 160/254/254
f 181/253/253 160/254/254 180/255/255
f 180/255/255 160/254/254 161/256/256
f 180/255/255 161/256/256 179/257/257
f 179/257/257 161/256/256 162/258/258
f 179/257/257 162/258/258 178/259/259
f 178/259/259 162/258/258 163/260/260
f 178/259/259 163/260/260 207/261/261
f 207/261/261 163/260/260 164/262/262
f 207/261/261 164/262/262 206/263/263
f 206/263/263 164/262/262 165/264/264
f 206/263/263 165/264/264 205/265/265
f 205/265/265 165/264/264 166/266/266
f 205/265/265 166/266/266 204/267/267
f 204/267/267 166/266/266 167/268/268
f 204/267/267 167/268/268 242/269/269
f 242/269/269 167/268/268 219/270/270
f 242/269/269 219/270/270 241/271/271
f 241/271/271 219/270/270 220/272/272
f 241/271/271 220/272/272 240/273/273
f 240/273/273 220/272/272 221/274/274
f 240/273/273 221/274/274 239/275/275
f 239/275/275 221/274/274 222/276/276
f 239/275/275 222/276/276 238/277/277
f 238/277/277 222/276/276 223/278/278
f 238/277/277 223/278/278 267/279/279
f 267/279/279 223/278/278 224/280/280
f 267/279/279 224/280/280 266/281/281
f 266/281/281 224/280/280 225/282/282
f 266/281/281 225/282/282 265/283/283
f 265/283/283 225/282/282 226/284/284
f 265/283/283 226/284/284 264/285/285
f 264/285/285 226/284/284 227/286/286
f 264/285/285 227/286/286 263/287/287
f 263/287/287 227/286/286 228/288/288
f 263/287/287 228/288/288 262/289/289
f 262/289/289 228/288/288 229/290/290
f 262/289/289 229/290/290 270/291/291
f 270/291/291 229/290/290 269/292/292
f 269/292/292 229/290/290 230/293/293
f 269/292/292 230/293/293 231/294/294
f 167/268/268 168/295/295 219/270/270
f 219/270/270 168/295/295 218/296/296
f 218/296/296 168/295/295 169/297/297
f 218/296/296 169/297/297 217/298/298
f 217/298/298 169/297/297 170/299/299
f 217/298/298 170/299/299 216/300/300
f 216/300/300 170/299/299 171/301/301
f 216/300/300 171/301/301 215/302/302
f 215/302/302 171/301/301 214/303/303
f 214/303/303 171/301/301 172/304/304
f 214/303/303 172/304/304 213/305/305
f 213/305/305 172/304/304 173/306/306
f 213/305/305 173/306/306 212/307/307
f 212/307/307 173/306/306 174/308/308
f 212/307/307 174/308/308 211/309/309
f 211/309/309 174/308/308 175/310/310
f 211/309/309 175/310/310 210/311/311
f 210/311/311 175/310/310 176/312/312
f 210/311/311 176/312/312 269/292/292
f 269/292/292 176/312/312 268/235/235
f 268/235/235 176/312/312 177/233/233
f 186/248/248 187/313/313 271/246/246
f 271/246/246 187/313/313 188/314/314
f 271/246/246 188/314/314 189/315/315
f 189/315/315 190/316/316 271/246/246
f 271/246/246 190/316/316 191/317/317
f 271/246/246 191/317/317 192/318/318
f 192/318/318 193/319/319 271/246/246
f 271/246/246 193/319/319 194/320/320
f 271/246/246 194/320/320 195/321/321
f 196/322/322 251/323/323 195/321/321
f 195/321/321 251/323/323 270/291/291
f 195/321/321 270/291/291 271/246/246
f 251/323/323 196/322/322 250/324/324
f 250/324/324 196/322/322 197/325/325
f 250/324/324 197/325/325 249/326/326
f 249/326/326 197/325/325 198/327/327
f 249/326/326 198/327/327 248/328/328
f 248/328/328 198/327/327 199/329/329
f 248/328/328 199/329/329 247/330/330
f 247/330/330 199/329/329 200/331/331
f 247/330/330 200/331/331 246/332/332
f 246/332/332 200/331/331 201/333/333
f 246/332/332 201/333/333 245/334/334
f 245/334/334 201/333/333 244/335/335
f 244/335/335 201/333/333 202/336/336
f 244/335/335 202/336/336 243/337/337
f 243/337/337 202/336/336 203/338/338
f 243/337/337 203/338/338 242/269/269
f 242/269/269 203/338/338 204/267/267
f 237/339/339 208/340/340 269/292/292
f 269/292/292 208/340/340 209/341/341
f 269/292/292 209/341/341 210/311/311
f 231/294/294 232/342/342 269/292/292
f 269/292/292 232/342/342 233/343/343
f 269/292/292 233/343/343 234/344/344
f 234/344/344 235/345/345 269/292/292
f 269/292/292 235/345/345 236/346/346
f 269/292/292 236/346/346 237/339/339
f 251/323/323 252/347/347 270/291/291
f 270/291/291 252/347/347 253/348/348
f 270/291/291 253/348/348 254/349/349
f 254/349/349 255/350/350 270/291/291
f 270/291/291 255/350/350 256/351/351
f 270/291/291 256/351/351 257/352/352
f 257/352/352 258/353/353 270/291/291
f 270/291/291 258/353/353 259/354/354
f 270/291/291 259/354/354 260/355/355
f 260/355/355 261/356/356 270/291/291
f 270/291/291 261/356/356 262/289/289
f 272/357/357 273/358/358 268/359/359
f 268/359/359 273/358/358 269/360/360
f 273/361/361 274/362/362 269/363/363
f 269/363/363 274/362/362 270/364/364
f 274/365/365 275/366/366 270/367/367
f 270/367/367 275/366/366 271/368/368
f 275/369/369 272/370/370 271/371/371
f 271/371/371 272/370/370 268/372/372
f 177/373/373 305/374/374 148/375/375
f 148/375/375 305/374/374 276/376/376
f 148/377/375 276/378/376 149/379/377
f 149/379/377 276/378/376 277/380/378
f 149/379/377 277/380/378 150/381/379
f 150/381/379 277/380/378 278/382/380
f 150/381/379 278/382/380 151/383/381
f 151/383/381 278/382/380 279/384/382
f 151/383/381 279/384/382 152/385/383
f 152/385/383 279/384/382 280/386/384
f 152/385/383 280/386/384 153/387/385
f 153/387/385 280/386/384 281/388/386
f 153/387/385 281/388/386 154/389/387
f 154/389/387 281/388/386 282/390/388
f 154/389/387 282/390/388 155/391/389
f 155/391/389 282/390/388 283/392/390
f 155/391/389 283/392/390 156/393/391
f 156/393/391 283/392/390 284/394/392
f 156/393/391 284/394/392 157/395/393
f 157/395/393 284/394/392 285/396/394
f 157/395/393 285/396/394 158/397/395
f 158/397/395 285/396/394 286/398/396
f 158/397/395 286/398/396 159/399/397
f 159/399/397 286/398/396 287/400/398
f 159/399/397 287/400/398 160/401/399
f 160/401/399 287/400/398 288/402/400
f 160/401/399 288/402/400 161/403/401
f 161/403/401 288/402/400 289/404/402
f 161/403/401 289/404/402 162/405/403
f 162/405/403 289/404/402 290/406/404
f 162/405/403 290/406/404 163/407/405
f 163/407/405 290/406/404 291/408/406
f 163/407/405 291/408/406 164/409/407
f 164/409/407 291/408/406 292/410/408
f 164/409/407 292/410/408 165/411/409
f 165/411/409 292/410/408 293/412/410
f 165/411/409 293/412/410 166/413/411
f 166/413/411 293/412/410 294/414/412
f 166/413/411 294/414/412 167/415/413
f 167/415/413 294/414/412 295/416/414
f 167/415/413 295/416/414 168/417/415
f 168/417/415 295/416/414 296/418/416
f 168/417/415 296/418/416 169/419/417
f 169/419/417 296/418/416 297/420/418
f 169/419/417 297/420/418 170/421/419
f 170/421/419 297/420/418 298/422/420
f 170/421/419 298/422/420 171/423/421
f 171/423/421 298/422/420 299/424/422
f 171/423/421 299/424/422 172/425/423
f 172/425/423 299/424/422 300/426/424
f 172/425/423 300/426/424 173/427/425
f 173/427/425 300/426/424 301/428/426
f 173/427/425 301/428/426 174/429/427
f 174/429/427 301/428/426 302/430/428
f 174/429/427 302/430/428 175/431/429
f 175/431/429 302/430/428 303/432/430
f 175/431/429 303/432/430 176/433/431
f 176/433/431 303/432/430 304/434/432
f 176/433/431 304/434/432 177/373/373
f 177/373/373 304/434/432 305/374/374
f 207/435/433 335/436/434 178/437/435
f 178/437/435 335/436/434 306/438/436
f 178/439/435 306/440/436 179/441/437
f 179/441/437 306/440/436 307/442/438
f 179/441/437 307/442/438 180/443/439
f 180/443/439 307/442/438 308/444/440
f 180/443/439 308/444/440 181/445/441
f 181/445/441 308/444/440 309/446/442
f 181/445/441 309/446/442 182/447/443
f 182/447/443 309/446/442 310/448/444
f 182/447/443 310/448/444 183/449/445
f 183/449/445 310/448/444 311/450/446
f 183/449/445 311/450/446 184/451/447
f 184/451/447 311/450/446 312/452/448
f 184/451/447 312/452/448 185/453/449
f 185/453/449 312/452/448 313/454/450
f 185/453/449 313/454/450 186/455/451
f 186/455/451 313/454/450 314/456/452
f 186/455/451 314/456/452 187/457/453
f 187/457/453 314/456/452 315/458/454
f 187/457/453 315/458/454 188/459/455
f 188/459/455 315/458/454 316/460/456
f 188/459/455 316/460/456 189/461/457
f 189/461/457 316/460/456 317/462/458
f 189/461/457 317/462/458 190/463/459
f 190/463/459 317/462/458 318/464/460
f 190/463/459 318/464/460 191/465/461
f 191/465/461 318/464/460 319/466/462
f 191/465/461 319/466/462 192/467/463
f 192/467/463 319/466/462 320/468/464
f 192/467/463 320/468/464 193/469/465
f 193/469/465 320/468/464 321/470/466
f 193/469/465 321/470/466 194/471/467
f 194/471/467 321/470/466 322/472/468
f 194/471/467 322/472/468 195/473/469
f 195/473/469 322/472/468 323/474/470
f 195/473/469 323/474/470 196/475/471
f 196/475/471 323/474/470 324/476/472
f 196/475/471 324/476/472 197/477/473
f 197/477/473 324/476/472 325/478/474
f 197/477/473 325/478/474 198/479/475
f 198/479/475 325/478/474 326/480/476
f 198/479/475 326/480/476 199/481/477
f 199/481/477 326/480/476 327/482/478
f 199/481/477 327/482/478 200/483/479
f 200/483/479 327/482/478 328/484/480
f 200/483/479 328/484/480 201/485/481
f 201/485/481 328/484/480 329/486/482
f 201/485/481 329/486/482 202/487/483
f 202/487/483 329/486/482 330/488/484
f 202/487/483 330/488/484 203/489/485
f 203/489/485 330/488/484 331/490/486
f 203/489/485 331/490/486 204/491/487
f 204/491/487 331/490/486 332/492/488
f 204/491/487 332/492/488 205/493/489
f 205/493/489 332/492/488 333/494/490
f 205/493/489 333/494/490 206/495/491
f 206/495/491 333/494/490 334/496/492
f 206/495/491 334/496/492 207/435/433
f 207/435/433 334/496/492 335/436/434
f 237/497/493 365/498/494 208/499/495
f 208/499/495 365/498/494 336/500/496
f 208/501/495 336/502/496 209/503/497
f 209/503/497 336/502/496 337/504/498
f 209/503/497 337/504/498 210/505/499
f 210/505/499 337/504/498 338/506/500
f 210/505/499 338/506/500 211/507/501
f 211/507/501 338/506/500 339/508/502
f 211/507/501 339/508/502 212/509/503
f 212/509/503 339/508/502 340/510/504
f 212/509/503 340/510/504 213/511/505
f 213/511/505 340/510/504 341/512/506
f 213/511/505 341/512/506 214/513/507
f 214/513/507 341/512/506 342/514/508
f 214/513/507 342/514/508 215/515/509
f 215/515/509 342/514/508 343/516/510
f 215/515/509 343/516/510 216/517/511
f 216/517/511 343/516/510 344/518/512
f 216/517/511 344/518/512 217/519/513
f 217/519/513 344/518/512 345/520/514
f 217/519/513 345/520/514 218/521/515
f 218/521/515 345/520/514 346/522/516
f 218/521/515 346/522/516 219/523/517
f 219/523/517 346/522/516 347/524/518
f 219/523/517 347/524/518 220/525/519
f 220/525/519 347/524/518 348/526/520
f 220/525/519 348/526/520 221/527/521
f 221/527/521 348/526/520 349/528/522
f 221/527/521 349/528/522 222/529/523
f 222/529/523 349/528/522 350/530/524
f 222/529/523 350/530/524 223/531/525
f 223/531/525 350/530/524 351/532/526
f 223/531/525 351/532/526 224/533/527
f 224/533/527 351/532/526 352/534/528
f 224/533/527 352/534/528 225/535/529
f 225/535/529 352/534/528 353/536/530
f 225/535/529 353/536/530 226/537/531
f 226/537/531 353/536/530 354/538/532
f 226/537/531 354/538/532 227/539/533
f 227/539/533 354/538/532 355/540/534
f 227/539/533 355/540/534 228/541/535
f 228/541/535 355/540/534 356/542/536
f 228/541/535 356/542/536 229/543/537
f 229/543/537 356/542/536 357/544/538
f 229/543/537 357/544/538 230/545/539
f 230/545/539 357/544/538 358/546/540
f 230/545/539 358/546/540 231/547/541
f 231/547/541 358/546/540 359/548/542
f 231/547/541 359/548/542 232/549/543
f 232/549/543 359/548/542 360/550/544
f 232/549/543 360/550/544 233/551/545
f 233/551/545 360/550/544 361/552/546
f 233/551/545 361/552/546 234/553/547
f 234/553/547 361/552/546 362/554/548
f 234/553/547 362/554/548 235/555/549
f 235/555/549 362/554/548 363/556/550
f 235/555/549 363/556/550 236/557/551
f 236/557/551 363/556/550 364/558/552
f 236/557/551 364/558/552 237/497/493
f 237/497/493 364/558/552 365/498/494
f 267/559/553 395/560/554 238/561/555
f 238/561/555 395/560/554 366/562/556
f 238/563/555 366/564/556 239/565/557
f 239/565/557 366/564/556 367/566/558
f 239/565/557 367/566/558 240/567/559
f 240/567/559 367/566/558 368/568/560
f 240/567/559 368/568/560 241/569/561
f 241/569/561 368/568/560 369/570/562
f 241/569/561 369/570/562 242/571/563
f 242/571/563 369/570/562 370/572/564
f 242/571/563 370/572/564 243/573/565
f 243/573/565 370/572/564 371/574/566
f 243/573/565 371/574/566 244/575/567
f 244/575/567 371/574/566 372/576/568
f 244/575/567 372/576/568 245/577/569
f 245/577/569 372/576/568 373/578/570
f 245/577/569 373/578/570 246/579/571
f 246/579/571 373/578/570 374/580/572
f 246/579/571 374/580/572 247/581/573
f 247/581/573 374/580/572 375/582/574
f 247/581/573 375/582/574 248/583/575
f 248/583/575 375/582/574 376/584/576
f 248/583/575 376/584/576 249/585/577
f 249/585/577 376/584/576 377/586/578
f 249/585/577 377/586/578 250/587/579
f 250/587/579 377/586/578 378/588/580
f 250/587/579 378/588/580 251/589/581
f 251/589/581 378/588/580 379/590/582
f 251/589/581 379/590/582 252/591/583
f 252/591/583 379/590/582 380/592/584
f 252/591/583 380/592/584 253/593/585
f 253/593/585 380/592/584 381/594/586
f 253/593/585 381/594/586 254/595/587
f 254/595/587 381/594/586 382/596/588
f 254/595/587 382/596/588 255/597/589
f 255/597/589 382/596/588 383/598/590
f 255/597/589 383/598/590 256/599/591
f 256/599/591 383/598/590 384/600/592
f 256/599/591 384/600/592 257/601/593
f 257/601/593 384/600/592 385/602/594
f 257/601/593 385/602/594 258/603/595
f 258/603/595 385/602/594 386/604/596
f 258/603/595 386/604/596 259/605/597
f 259/605/597 386/604/596 387/606/598
f 259/605/597 387/606/598 260/607/599
f 260/607/599 387/606/598 388/608/600
f 260/607/599 388/608/600 261/609/601
f 261/609/601 388/608/600 389/610/602
f 261/609/601 389/610/602 262/611/603
f 262/611/603 389/610/602 390/612/604
f 262/611/603 390/612/604 263/613/605
f 263/613/605 390/612/604 391/614/606
f 263/613/605 391/614/606 264/615/607
f 264/615/607 391/614/606 392/616/608
f 264/615/607 392/616/608 265/617/609
f 265/617/609 392/616/608 393/618/610
f 265/617/609 393/618/610 266/619/611
f 266/619/611 393/618/610 394/620/612
f 266/619/611 394/620/612 267/559/553
f 267/559/553 394/620/612 395/560/554
f 147/621/613 342/622/614 396/623/615
f 396/623/615 342/622/614 300/624/616
f 396/623/615 300/624/616 299/625/617
f 142/626/618 352/627/619 147/621/613
f 147/621/613 352/627/619 351/628/620
f 147/621/613 351/628/620 350/629/621
f 141/630/622 375/631/623 142/626/618
f 142/626/618 375/631/623 374/632/624
f 142/626/618 374/632/624 373/633/625
f 396/623/615 307/634/626 141/630/622
f 141/630/622 307/634/626 306/635/627
f 141/630/622 306/635/627 335/636/628
f 277/637/629 276/638/630 272/639/631
f 272/639/631 276/638/630 305/640/632
f 272/639/631 305/640/632 304/641/633
f 303/642/634 338/643/635 304/641/633
f 304/641/633 338/643/635 273/644/636
f 304/641/633 273/644/636 272/639/631
f 338/643/635 303/642/634 339/645/637
f 339/645/637 303/642/634 302/646/638
f 339/645/637 302/646/638 340/647/639
f 340/647/639 302/646/638 301/648/640
f 340/647/639 301/648/640 341/649/641
f 341/649/641 301/648/640 300/624/616
f 341/649/641 300/624/616 342/622/614
f 299/625/617 298/650/642 396/623/615
f 396/623/615 298/650/642 297/651/643
f 396/623/615 297/651/643 296/652/644
f 296/652/644 295/653/645 396/623/615
f 396/623/615 295/653/645 294/654/646
f 396/623/615 294/654/646 293/655/647
f 293/655/647 292/656/648 396/623/615
f 396/623/615 292/656/648 291/657/649
f 396/623/615 291/657/649 290/658/650
f 289/659/651 308/660/652 290/658/650
f 290/658/650 308/660/652 307/634/626
f 290/658/650 307/634/626 396/623/615
f 308/660/652 289/659/651 309/661/653
f 309/661/653 289/659/651 288/662/654
f 309/661/653 288/662/654 310/663/655
f 310/663/655 288/662/654 287/664/656
f 310/663/655 287/664/656 311/665/657
f 311/665/657 287/664/656 286/666/658
f 311/665/657 286/666/658 312/667/659
f 312/667/659 286/666/658 285/668/660
f 312/667/659 285/668/660 275/669/661
f 275/669/661 285/668/660 272/639/631
f 272/639/631 285/668/660 284/670/662
f 272/639/631 284/670/662 283/671/663
f 283/671/663 282/672/664 272/639/631
f 272/639/631 282/672/664 281/673/665
f 272/639/631 281/673/665 280/674/666
f 280/674/666 279/675/667 272/639/631
f 272/639/631 279/675/667 278/676/668
f 272/639/631 278/676/668 277/637/629
f 335/636/628 334/677/669 141/630/622
f 141/630/622 334/677/669 333/678/670
f 141/630/622 333/678/670 332/679/671
f 332/679/671 331/680/672 141/630/622
f 141/630/622 331/680/672 330/681/673
f 141/630/622 330/681/673 329/682/674
f 329/682/674 328/683/675 141/630/622
f 141/630/622 328/683/675 327/684/676
f 141/630/622 327/684/676 375/631/623
f 375/631/623 327/684/676 376/685/677
f 376/685/677 327/684/676 326/686/678
f 376/685/677 326/686/678 377/687/679
f 377/687/679 326/686/678 325/688/680
f 377/687/679 325/688/680 378/689/681
f 378/689/681 325/688/680 324/690/682
f 378/689/681 324/690/682 379/691/683
f 379/691/683 324/690/682 323/692/684
f 379/691/683 323/692/684 274/693/685
f 274/693/685 323/692/684 275/669/661
f 275/669/661 323/692/684 322/694/686
f 275/669/661 322/694/686 321/695/687
f 321/695/687 320/696/688 275/669/661
f 275/669/661 320/696/688 319/697/689
f 275/669/661 319/697/689 318/698/690
f 318/698/690 317/699/691 275/669/661
f 275/669/661 317/699/691 316/700/692
f 275/669/661 316/700/692 315/701/693
f 315/701/693 314/702/694 275/669/661
f 275/669/661 314/702/694 313/703/695
f 275/669/661 313/703/695 312/667/659
f 337/704/696 336/705/697 273/644/636
f 273/644/636 336/705/697 365/706/698
f 273/644/636 365/706/698 364/707/699
f 364/707/699 363/708/700 273/644/636
f 273/644/636 363/708/700 362/709/701
f 273/644/636 362/709/701 361/710/702
f 361/710/702 360/711/703 273/644/636
f 273/644/636 360/711/703 359/712/704
f 273/644/636 359/712/704 358/713/705
f 358/713/705 357/714/706 273/644/636
f 273/644/636 357/714/706 390/715/707
f 273/644/636 390/715/707 274/693/685
f 274/693/685 390/715/707 389/716/708
f 274/693/685 389/716/708 388/717/709
f 390/715/707 357/714/706 391/718/710
f 391/718/710 357/714/706 356/719/711
f 391/718/710 356/719/711 392/720/712
f 392/720/712 356/719/711 355/721/713
f 392/720/712 355/721/713 393/722/714
f 393/722/714 355/721/713 354/723/715
f 393/722/714 354/723/715 394/724/716
f 394/724/716 354/723/715 353/725/717
f 394/724/716 353/725/717 395/726/718
f 395/726/718 353/725/717 352/627/619
f 395/726/718 352/627/619 142/626/618
f 350/629/621 349/727/719 147/621/613
f 147/621/613 349/727/719 348/728/720
f 147/621/613 348/728/720 347/729/721
f 347/729/721 346/730/722 147/621/613
f 147/621/613 346/730/722 345/731/723
f 147/621/613 345/731/723 344/732/724
f 344/732/724 343/733/725 147/621/613
f 147/621/613 343/733/725 342/622/614
f 338/643/635 337/704/696 273/644/636
f 367/734/726 366/735/727 142/626/618
f 142/626/618 366/735/727 395/726/718
f 388/717/709 387/736/728 274/693/685
f 274/693/685 387/736/728 386/737/729
f 274/693/685 386/737/729 385/738/730
f 385/738/730 384/739/731 274/693/685
f 274/693/685 384/739/731 383/740/732
f 274/693/685 383/740/732 382/741/733
f 382/741/733 381/742/734 274/693/685
f 274/693/685 381/742/734 380/743/735
f 274/693/685 380/743/735 379/691/683
f 373/633/625 372/744/736 142/626/618
f 142/626/618 372/744/736 371/745/737
f 142/626/618 371/745/737 370/746/738
f 370/746/738 369/747/739 142/626/618
f 142/626/618 369/747/739 368/748/740
f 142/626/618 368/748/740 367/734/726
f 7/749/741 31/750/742 32/751/743
f 32/751/743 31/750/742 134/752/744
f 32/751/743 134/752/744 133/753/745
f 6/754/746 2/755/747 7/749/741
f 7/749/741 2/755/747 1/756/748
f 7/749/741 1/756/748 31/750/742
f 6/754/746 5/757/749 2/755/747
f 2/755/747 5/757/749 4/758/750
f 2/755/747 4/758/750 3/759/751
f 31/750/742 67/760/752 134/752/744
f 134/752/744 67/760/752 143/761/753
f 143/761/753 67/760/752 99/762/754
f 143/761/753 99/762/754 101/763/755
f 67/760/752 70/764/756 99/762/754
f 99/762/754 70/764/756 71/765/757
f 71/765/757 70/764/756 76/766/758
f 71/765/757 76/766/758 75/767/759
f 75/767/759 74/768/760 71/765/757
f 71/765/757 74/768/760 73/769/761
f 71/765/757 73/769/761 72/770/762
f 108/771/763 102/772/764 101/763/755
f 101/763/755 102/772/764 132/773/765
f 101/763/755 132/773/765 137/774/766
f 137/774/766 132/773/765 133/753/745
f 133/753/745 132/773/765 34/775/767
f 133/753/745 34/775/767 39/776/768
f 39/776/768 34/775/767 37/777/769
f 39/776/768 37/777/769 40/778/770
f 40/778/770 37/777/769 42/779/771
f 42/779/771 37/777/769 43/780/772
f 43/780/772 37/777/769 44/781/773
f 44/781/773 37/777/769 45/782/774
f 45/782/774 37/777/769 46/783/775
f 107/784/776 106/785/777 108/771/763
f 108/771/763 106/785/777 105/786/778
f 108/771/763 105/786/778 104/787/779
f 104/787/779 103/788/780 108/771/763
f 108/771/763 103/788/780 102/772/764
f 39/776/768 32/751/743 133/753/745
f 137/774/766 143/761/753 101/763/755
f 140/789/781 146/790/782 141/791/783
f 141/791/783 146/790/782 396/792/784
f 146/793/785 145/794/786 396/795/787
f 396/795/787 145/794/786 147/796/788
# 396 vertices
# 796 texture params
# 788 normals
# 804 facets

# 1 groups
